<svg width="21" height="41" viewBox="0 0 21 41" fill="none" xmlns="http://www.w3.org/2000/svg">
<path d="M7.46955 25.8394H4.60107V40.5H7.46955V25.8394Z" fill="#8C8C8C"/>
<path d="M17.0724 38.9425C17.0724 37.3777 15.6526 36.1393 14.2884 34.9537C13.7335 34.4641 12.689 33.6183 12.689 33.0538V25.7598H9.80713V33.4666C9.80713 34.8778 11.0705 35.9713 12.402 37.131C12.9943 37.6321 14.2001 38.7975 14.2001 39.4906C14.2001 39.769 14.2039 41 14.2039 41H17.0743L17.0724 38.9425Z" fill="#8C8C8C"/>
<path opacity="0.3" d="M18.8976 17.3347V9.4512C18.8976 4.2336 14.6736 0 9.45024 0C4.2336 0 0 4.22592 0 9.4512V27.6499C1.96512 29.8512 5.4624 31.32 9.45024 31.32C15.6096 31.32 20.6083 27.8294 20.6083 23.5075V21.4762C20.6074 19.9526 19.9757 18.5376 18.8976 17.3347Z" fill="#CCCCCC"/>
<path opacity="0.5" d="M18.8976 17.3347V9.4512C18.8976 4.2336 14.6736 0 9.45024 0C4.2336 0 0 4.22592 0 9.4512V27.6499C1.96512 29.8512 5.4624 31.32 9.45024 31.32C15.6096 31.32 20.6083 27.8294 20.6083 23.5075V21.4762C20.6074 19.9526 19.9757 18.5376 18.8976 17.3347Z" fill="#E6E6E6"/>
<path opacity="0.9" d="M18.8976 17.335V21.4754C18.8976 25.1273 14.6765 28.0956 9.45024 28.0956C4.2336 28.0956 0 25.1369 0 21.4754V25.6159V27.6482C1.96512 29.8505 5.4624 31.3183 9.45024 31.3183C15.6096 31.3183 20.6083 27.8278 20.6083 23.5068V21.4754C20.6074 19.9529 19.9757 18.5378 18.8976 17.335Z" fill="#D1D1D1"/>
<path opacity="0.7" d="M18.8976 17.335V21.4754C18.8976 25.1273 14.6765 28.0956 9.45024 28.0956C4.2336 28.0956 0 25.1369 0 21.4754V25.6159V27.6482C1.96512 29.8505 5.4624 31.3183 9.45024 31.3183C15.6096 31.3183 20.6083 27.8278 20.6083 23.5068V21.4754C20.6074 19.9529 19.9757 18.5378 18.8976 17.335Z" fill="#E6E6E6"/>
<path opacity="0.25" d="M18.8976 17.335V21.4754C18.8976 25.1273 14.6765 28.0956 9.45024 28.0956C4.2336 28.0956 0 25.1369 0 21.4754V25.6159C1.96512 27.8162 5.4624 29.286 9.45024 29.286C15.6096 29.286 20.6083 25.7954 20.6083 21.4745C20.6074 19.9529 19.9757 18.5378 18.8976 17.335Z" fill="#E6E6E6"/>
<path opacity="0.25" d="M9.45026 28.0896C14.6689 28.0896 18.8995 25.1283 18.8995 21.4752C18.8995 17.8222 14.6689 14.8608 9.45026 14.8608C4.23156 14.8608 0.000976562 17.8222 0.000976562 21.4752C0.000976562 25.1283 4.23156 28.0896 9.45026 28.0896Z" fill="#E6E6E6"/>
<path opacity="0.25" d="M9.45026 28.0896C14.6689 28.0896 18.8995 25.1283 18.8995 21.4752C18.8995 17.8222 14.6689 14.8608 9.45026 14.8608C4.23156 14.8608 0.000976562 17.8222 0.000976562 21.4752C0.000976562 25.1283 4.23156 28.0896 9.45026 28.0896Z" fill="#E6E6E6"/>
<path d="M2.9375 12.8639V21.4761H4.26134V17.4594H8.0207L13.3497 11.7397H4.54262L2.9375 12.8639Z" fill="#666666"/>
<path d="M14.3713 11.3652L14.953 12.0449L9.88232 17.4593H14.7466V21.476H15.9649V11.3652H14.3713Z" fill="#666666"/>
<path opacity="0.65" d="M18.8976 17.3347V9.4512C18.8976 4.2336 14.6736 0 9.45024 0C4.2336 0 0 4.22592 0 9.4512V27.6499C1.96512 29.8512 5.4624 31.32 9.45024 31.32C15.6096 31.32 20.6083 27.8294 20.6083 23.5075V21.4762C20.6074 19.9526 19.9757 18.5376 18.8976 17.3347Z" fill="#ECECEC"/>
<path opacity="0.5" d="M13.851 5.0052L15.7662 4.6404C14.6439 3.13128 12.9899 2.03016 11.0439 1.65576L11.3828 3.09672C12.4014 3.45768 13.2587 4.13736 13.851 5.0052Z" fill="white"/>
<path opacity="0.5" d="M1.02441 26.5679V28.5944C1.88937 29.3 2.93577 29.8962 4.10121 30.3503V28.317C2.93001 27.8687 1.89225 27.2744 1.02441 26.5679Z" fill="white"/>
<path opacity="0.5" d="M14.7639 26.946C14.4231 27.1092 14.0574 27.2523 13.6897 27.3857C13.6119 27.4116 13.5332 27.4395 13.4526 27.4635C12.7009 27.7025 11.9041 27.8888 11.0593 27.9896C10.9595 28.002 10.8577 28.0145 10.7598 28.0155C10.3326 28.0558 9.90153 28.0932 9.46569 28.0932C9.26793 28.0932 9.05577 28.0731 8.83689 28.0616C7.23657 27.9857 5.72937 27.642 4.44009 27.0756V15.8897V9.45579C4.44009 7.49451 5.57097 5.81643 7.20489 4.98987L7.17513 4.91883L5.51145 2.90283C3.28521 4.24011 1.79145 6.66603 1.79145 9.45195V25.3256C1.72521 25.2593 1.38057 24.9137 1.15113 24.619L0.741211 25.5358C2.60937 27.5115 5.81961 28.818 9.46473 28.818C11.7044 28.818 13.7809 28.3198 15.4801 27.4817L14.7774 26.9364C14.7639 26.946 14.7639 26.946 14.7639 26.946Z" fill="white"/>
</svg>
