<svg width="123" height="99" viewBox="0 0 123 99" fill="none" xmlns="http://www.w3.org/2000/svg">
<g clip-path="url(#clip0_1006_435)">
<g filter="url(#filter0_f_1006_435)">
<path d="M73.668 95.9275L65.1904 108.854L68.9962 111.35L77.4737 98.4235L73.668 95.9275Z" fill="#8C8C8C"/>
<path d="M93.8389 65.051L85.314 78.0496L89.1197 80.5456L97.6447 67.5469L93.8389 65.051Z" fill="#8C8C8C"/>
<path d="M94.3489 65.3856L90.605 71.0943L100.384 77.5077L104.128 71.799L94.3489 65.3856Z" fill="#8C8C8C"/>
<path d="M37.4694 50.9415L29.7319 62.7394L33.5377 65.2354L41.2752 53.4375L37.4694 50.9415Z" fill="#8C8C8C"/>
<path d="M28.8528 49.6444L25.1089 55.3531L36.5262 62.841L40.2702 57.1323L28.8528 49.6444Z" fill="#8C8C8C"/>
<path d="M34.5507 57.4716C26.0345 70.457 29.66 87.892 42.6529 96.4132L66.1707 111.837L81.5921 88.323L97.0209 64.7976L73.4992 49.3713C60.5113 40.8506 43.0732 44.4768 34.5507 57.4716ZM58.3755 91.9422L40.4884 80.2112L57.7792 53.8466L75.6663 65.5777L58.3755 91.9422Z" fill="#6B6B6B"/>
<path d="M40.3701 67.0879C37.1699 76.8515 42.4972 87.3637 52.2564 90.5665C62.0256 93.7623 72.5335 88.4457 75.7426 78.6771C78.9421 68.9021 73.6199 58.3987 63.8499 55.1915C54.0807 51.9958 43.5709 57.3111 40.3701 67.0879ZM58.6118 81.0462L53.5535 76.7627L56.7254 67.0839L63.3384 66.6232L58.6118 81.0462Z" fill="#CECECE"/>
<path d="M60.0198 76.7581L61.9317 70.9174L71.303 73.9855L69.391 79.8262L60.0198 76.7581Z" fill="black"/>
<path d="M56.7234 67.0826L63.3383 66.6231L51.3581 67.45L46.7203 65.9323L44.8121 71.7672L49.445 73.2925L58.6117 81.0461L53.5535 76.7626L56.7234 67.0826Z" fill="black"/>
<path d="M51.1107 84.2142L56.945 86.1275L58.6121 81.046L53.5539 76.7626L51.1107 84.2142Z" fill="#4D4D4D"/>
<path d="M56.7234 67.0828L63.3383 66.6233L65.0067 61.54L59.1667 59.6312L56.7234 67.0828Z" fill="#4D4D4D"/>
<path opacity="0.3" d="M72.8942 51.6255C71.395 50.762 69.7844 50.0268 68.0779 49.4628C66.5404 48.9606 65.0004 48.6364 63.4589 48.4391L63.1376 49.6843L60.1164 49.88C59.1716 49.8808 58.2266 49.9523 57.2997 50.071L54.1342 50.2836L54.0518 48.9859C45.8943 51.0381 38.9295 57.0727 36.1136 65.6569C33.3071 74.231 35.3466 83.221 40.7073 89.703L41.5392 88.7084L43.9682 90.7558C44.6484 91.3951 45.3637 92.0058 46.126 92.5737L48.4463 94.5255L47.9611 95.7176C49.3282 96.4672 50.7664 97.1166 52.3008 97.6194C54.0123 98.1758 55.7418 98.5345 57.4632 98.7273L57.2964 97.0314C60.7748 97.4621 64.2112 97.0897 67.4205 96.0595L67.5759 97.7561C75.191 95.4272 81.5967 89.5728 84.2708 81.429C86.9329 73.2909 85.2391 64.778 80.4788 58.4013L79.3434 59.6677C77.3731 56.9332 74.8208 54.6008 71.7588 52.8919L72.8942 51.6255ZM75.8448 78.6706C73.0149 87.3218 63.6985 92.0374 55.0517 89.2049C46.4036 86.3661 41.6849 77.0585 44.5244 68.4136C47.3612 59.756 56.6688 55.0456 65.3137 57.8768C73.9738 60.7098 78.6805 70.0231 75.8448 78.6706Z" fill="black"/>
<path d="M35.563 65.5085C31.4835 77.9365 38.255 91.309 50.6804 95.376C63.104 99.4499 76.486 92.6846 80.5529 80.251C84.6237 67.8281 77.8565 54.453 65.4261 50.3855C53.0063 46.314 39.6325 53.0792 35.563 65.5085ZM75.7448 78.6733C72.537 88.4401 62.0317 93.7693 52.2593 90.566C42.4837 87.3633 37.1608 76.8485 40.3635 67.0811C43.5688 57.3099 54.0836 51.987 63.8553 55.1872C73.6221 58.395 78.9482 68.9091 75.7448 78.6733Z" fill="black"/>
<path d="M70.7646 50.9637C69.2634 50.099 67.6535 49.3588 65.942 48.8023C64.4177 48.3007 62.8746 47.969 61.3255 47.7749L60.9997 49.0144L51.9995 49.6213L51.9159 48.3255C43.7609 50.3738 36.8005 56.4059 33.9846 64.9901C31.1705 73.5756 33.2131 82.5567 38.5738 89.0388L39.4052 88.0492L46.3129 93.8612L45.8353 95.0583C47.1998 95.8118 48.6406 96.4573 50.1629 96.9577C51.8782 97.5166 53.6021 97.8798 55.3285 98.065L54.8818 93.4804L64.9963 92.4941L65.4507 97.1C73.0532 94.7737 79.4583 88.9162 82.1311 80.7743C84.8046 72.6355 83.107 64.12 78.3498 57.7426L75.271 61.1798L67.6909 54.4097L70.7646 50.9637ZM73.7178 78.0132C70.8821 86.6607 61.5695 91.3787 52.9233 88.5412C44.2752 85.7024 39.5572 76.398 42.3992 67.7493C45.2354 59.0968 54.5379 54.3857 63.1923 57.2232C71.8423 60.055 76.5496 69.3633 73.7178 78.0132Z" fill="#1A1A1A"/>
<path opacity="0.4" d="M40.2864 83.9293C40.8606 83.0539 40.6163 81.8788 39.7409 81.3047C38.8655 80.7305 37.6904 80.9748 37.1162 81.8502C36.5421 82.7256 36.7863 83.9007 37.6618 84.4749C38.5372 85.049 39.7123 84.8048 40.2864 83.9293Z" fill="white"/>
<path opacity="0.4" d="M49.9702 54.3965C50.545 53.52 50.3005 52.3435 49.424 51.7686C48.5475 51.1938 47.371 51.4384 46.7962 52.3148C46.2214 53.1913 46.4659 54.3678 47.3424 54.9427C48.2189 55.5175 49.3954 55.273 49.9702 54.3965Z" fill="white"/>
<g opacity="0.4">
<path d="M70.8283 87.5853L70.2298 88.1453L69.6597 87.5455L70.2501 86.9857L69.6946 86.3928L70.8897 85.2634L75.4102 90.0515L74.2126 91.1846L70.8283 87.5853Z" fill="white"/>
<path d="M81.732 79.0669L80.6541 82.1835L79.8694 81.9111L79.6038 82.6812L74.9242 81.0654L75.1923 80.2914L74.4209 80.0277L75.5025 76.9054L76.2746 77.1805L76.5515 76.3932L81.2216 78.0111L80.9448 78.7983L81.732 79.0669ZM80.6741 79.5678L76.0028 77.9601L75.4692 79.5124L80.1393 81.1302L80.6741 79.5678Z" fill="white"/>
<path d="M79.2055 66.8781L79.043 66.0802L79.8527 65.9119L80.0203 66.7104L81.6361 66.3794L81.9684 68.0097L80.3596 68.3425L80.8493 70.7618L79.2316 71.0915L79.0716 70.2981L77.4513 70.6151L77.2836 69.8085L78.9032 69.4719L79.0722 70.293L79.8763 70.1292L79.5479 68.5096L75.5147 69.3396L75.1812 67.7112L79.2055 66.8781Z" fill="white"/>
</g>
<path d="M72.8552 53.5059L63.1543 24.7855L70.6468 22.2547L80.3477 50.9752L72.8552 53.5059Z" fill="#8C8C8C"/>
<path d="M122.839 36.6257L113.137 7.90021L120.634 5.36778L130.337 34.0932L122.839 36.6257Z" fill="#8C8C8C"/>
<path d="M90.9965 107.207L81.2939 78.4819L88.789 75.9503L98.4915 104.676L90.9965 107.207Z" fill="#8C8C8C"/>
<path d="M126.566 15.1474L65.291 35.8441L85.9894 97.1238L147.264 76.4271L126.566 15.1474Z" fill="black"/>
<path d="M145.573 71.4296C146.503 74.1812 145.021 77.1818 142.262 78.1137L90.9844 95.4338C88.2328 96.3632 85.2305 94.877 84.3011 92.1254L66.9776 40.8375C66.0491 38.0884 67.5353 35.0861 70.2869 34.1567L121.572 16.834C124.329 15.903 127.321 17.3925 128.25 20.1416L145.573 71.4296Z" fill="#999999"/>
<path d="M79.0231 47.0625C81.9547 46.0722 83.5286 42.8929 82.5383 39.9613C81.5481 37.0296 78.3688 35.4558 75.4371 36.446C72.5055 37.4362 70.9316 40.6155 71.9219 43.5472C72.9121 46.4788 76.0914 48.0527 79.0231 47.0625Z" fill="black"/>
<path d="M122.628 32.4373C125.559 31.4471 127.133 28.2677 126.143 25.3361C125.153 22.4044 121.973 20.8306 119.042 21.8208C116.11 22.811 114.536 25.9903 115.526 28.922C116.517 31.8537 119.696 33.4275 122.628 32.4373Z" fill="black"/>
<path d="M93.6466 90.6616C96.5783 89.6714 98.1521 86.4921 97.1619 83.5604C96.1716 80.6287 92.9923 79.0549 90.0607 80.0451C87.129 81.0353 85.5552 84.2147 86.5454 87.1463C87.5356 90.078 90.7149 91.6518 93.6466 90.6616Z" fill="black"/>
<path d="M112.309 74.0031C122.178 70.6697 127.476 59.9672 124.143 50.0984C120.809 40.2296 110.107 34.9316 100.238 38.265C90.3694 41.5984 85.0714 52.3008 88.4048 62.1697C91.7381 72.0385 102.441 77.3365 112.309 74.0031Z" fill="#3F3F3F"/>
<path d="M112.309 74.0031C122.178 70.6697 127.476 59.9672 124.143 50.0984C120.809 40.2296 110.107 34.9316 100.238 38.265C90.3694 41.5984 85.0714 52.3008 88.4048 62.1697C91.7381 72.0385 102.441 77.3365 112.309 74.0031Z" fill="url(#paint0_linear_1006_435)"/>
<path opacity="0.6" d="M112.616 73.8775C121.3 70.9442 125.962 61.526 123.029 52.8414C120.096 44.1569 110.677 39.4946 101.993 42.428C93.3083 45.3614 88.646 54.7795 91.5794 63.4641C94.5128 72.1486 103.931 76.8109 112.616 73.8775Z" fill="black"/>
<path d="M111.509 71.5561C119.972 68.6973 124.516 59.5186 121.657 51.0549C118.798 42.5912 109.62 38.0475 101.156 40.9063C92.6923 43.7651 88.1486 52.9438 91.0073 61.4075C93.8661 69.8712 103.045 74.4149 111.509 71.5561Z" fill="#735348"/>
<path opacity="0.5" d="M76.4495 41.7089C76.4701 41.4235 76.5975 41.1661 76.8539 41.0266L75.1996 37.86C75.0106 37.96 74.7889 38.0042 74.6118 38.1309L74.6017 38.1176C73.4938 38.9178 72.8806 40.1523 72.8058 41.489L76.4495 41.7089Z" fill="white"/>
<path opacity="0.5" d="M120.048 27.0828C120.064 26.7933 120.192 26.5358 120.454 26.3972L118.807 23.228C118.615 23.3347 118.394 23.3731 118.217 23.4998L118.203 23.4848C117.1 24.2809 116.484 25.5162 116.41 26.8554L120.048 27.0828Z" fill="white"/>
<path opacity="0.5" d="M91.0732 85.3108C91.0895 85.0212 91.2195 84.7713 91.4809 84.6301L89.8258 81.461C89.6352 81.5727 89.4126 81.6061 89.2362 81.7353L89.2253 81.7195C88.1149 82.5122 87.5034 83.7517 87.4236 85.0901L91.0732 85.3108Z" fill="white"/>
<path opacity="0.6" d="M106.991 40.0965C105.648 40.0351 104.286 40.1248 102.914 40.4214C99.5006 41.1649 96.5981 42.9583 94.4104 45.3595L94.3693 46.3423C96.833 43.7198 100.083 41.7924 103.864 40.969C105.028 40.7208 106.202 40.6027 107.355 40.5806L106.991 40.0965Z" fill="white"/>
</g>
</g>
<defs>
<filter id="filter0_f_1006_435" x="10.1089" y="-9.6322" width="153.364" height="140.198" filterUnits="userSpaceOnUse" color-interpolation-filters="sRGB">
<feFlood flood-opacity="0" result="BackgroundImageFix"/>
<feBlend mode="normal" in="SourceGraphic" in2="BackgroundImageFix" result="shape"/>
<feGaussianBlur stdDeviation="7.5" result="effect1_foregroundBlur_1006_435"/>
</filter>
<linearGradient id="paint0_linear_1006_435" x1="88.4059" y1="62.1698" x2="124.144" y2="50.0988" gradientUnits="userSpaceOnUse">
<stop stop-color="#333333"/>
<stop offset="1" stop-color="#3C3C3C"/>
</linearGradient>
<clipPath id="clip0_1006_435">
<rect width="123" height="99" rx="15" fill="white"/>
</clipPath>
</defs>
</svg>
