<svg width="194" height="159" viewBox="0 0 194 159" fill="none" xmlns="http://www.w3.org/2000/svg">
<g clip-path="url(#clip0_1006_375)">
<g filter="url(#filter0_f_1006_375)">
<path d="M104.379 111.921L101.185 116.353L172.128 167.48L175.321 163.048L104.379 111.921Z" fill="#8C8C8C"/>
<path d="M135.313 111.674C132.895 109.932 129.401 110.747 126.051 111.534C124.677 111.847 122.207 112.518 121.335 111.89L110.067 103.769L106.858 108.221L118.764 116.802C120.944 118.373 124.04 117.639 127.314 116.873C128.748 116.516 131.891 115.95 132.962 116.722C133.392 117.032 182.823 152.648 182.823 152.648L186.019 148.213L135.313 111.674Z" fill="#8C8C8C"/>
<path opacity="0.3" d="M103.964 84.7972L91.7843 76.0199C83.7237 70.2107 72.4803 72.0227 66.6648 80.0923C60.8567 88.1514 62.6717 99.3969 70.7442 105.215L98.8592 125.477C104.448 124.892 110.611 121.124 115.051 114.963C121.909 105.448 122.081 93.8389 115.405 89.027L112.266 86.7653C109.912 85.0705 107.022 84.471 103.964 84.7972Z" fill="#0000EE"/>
<path opacity="0.9" d="M103.964 84.7972L110.36 89.4072C116.002 93.473 115.888 103.299 110.069 111.373C104.261 119.432 94.9765 122.678 89.3199 118.602L95.7165 123.212L98.8563 125.475C104.446 124.891 110.608 121.122 115.048 114.961C121.906 105.446 122.078 93.8368 115.403 89.0259L112.265 86.7643C109.912 85.0706 107.022 84.471 103.964 84.7972Z" fill="#D1D1D1"/>
<path opacity="0.7" d="M103.964 84.7972L110.36 89.4072C116.002 93.473 115.888 103.299 110.069 111.373C104.261 119.432 94.9765 122.678 89.3199 118.602L95.7165 123.212L98.8563 125.475C104.446 124.891 110.608 121.122 115.048 114.961C121.906 105.446 122.078 93.8368 115.403 89.0259L112.265 86.7643C109.912 85.0706 107.022 84.471 103.964 84.7972Z" fill="#0000EE"/>
<path opacity="0.25" d="M103.964 84.7972L110.36 89.4072C116.002 93.473 115.888 103.299 110.069 111.373C104.261 119.432 94.9765 122.678 89.3199 118.602L95.7165 123.212C101.304 122.626 107.468 118.859 111.908 112.698C118.766 103.183 118.939 91.5741 112.263 86.7632C109.912 85.0706 107.022 84.471 103.964 84.7972Z" fill="black"/>
<path opacity="0.25" d="M110.06 111.367C115.871 103.304 116.006 93.4714 110.362 89.4042C104.719 85.3369 95.4335 88.5756 89.6232 96.638C83.8128 104.7 83.6775 114.533 89.3211 118.6C94.9646 122.668 104.25 119.429 110.06 111.367Z" fill="#E6E6E6"/>
<path opacity="0.25" d="M110.06 111.367C115.871 103.304 116.006 93.4714 110.362 89.4042C104.719 85.3369 95.4335 88.5756 89.6232 96.638C83.8128 104.7 83.6775 114.533 89.3211 118.6C94.9646 122.668 104.25 119.429 110.06 111.367Z" fill="#0000EE"/>
<path d="M79.287 104.476L92.5919 114.065L94.0658 112.02L87.8605 107.548L92.0461 101.74L89.143 87.139L79.3374 100.745L79.287 104.476Z" fill="#666666"/>
<path d="M89.702 85.1438L91.3998 85.0018L94.1188 98.8638L99.5346 91.349L105.74 95.821L107.096 93.9389L91.4763 82.6819L89.702 85.1438Z" fill="#666666"/>
<path opacity="0.65" d="M103.964 84.7972L91.7843 76.0199C83.7237 70.2107 72.4803 72.0227 66.6648 80.0923C60.8567 88.1514 62.6717 99.3969 70.7442 105.215L98.8592 125.477C104.448 124.892 110.611 121.124 115.051 114.963C121.909 105.448 122.081 93.8389 115.405 89.027L112.266 86.7653C109.912 85.0705 107.022 84.471 103.964 84.7972Z" fill="#0000EE"/>
<path opacity="0.5" d="M79.2974 78.8666L80.8661 75.5016C77.2852 75.5551 73.7425 76.8845 70.9976 79.4739L73.601 80.5547C75.2927 79.3831 77.2972 78.8154 79.2974 78.8666Z" fill="white"/>
<path opacity="0.5" d="M98.3281 122.69L101.459 124.946C103.512 124.395 105.598 123.442 107.597 122.147L104.456 119.884C102.459 121.194 100.386 122.135 98.3281 122.69Z" fill="white"/>
<path opacity="0.5" d="M114.21 101.885C114.083 102.593 113.896 103.317 113.693 104.034C113.647 104.183 113.602 104.335 113.549 104.487C113.082 105.914 112.482 107.352 111.697 108.77C111.605 108.938 111.511 109.109 111.404 109.261C110.991 109.966 110.569 110.674 110.083 111.347C109.863 111.653 109.596 111.958 109.334 112.283C107.435 114.671 105.226 116.617 102.916 117.978L85.6347 105.524L75.695 98.3605C72.665 96.1769 71.3317 92.5615 71.8739 89.117L71.731 89.0838L66.7642 89.4095C66.3515 94.3377 68.4362 99.3463 72.7401 102.448L97.2632 120.121C97.0871 120.15 96.1694 120.298 95.4587 120.324L96.4186 121.978C101.551 121.292 107.144 117.787 111.202 112.155C113.696 108.695 115.238 104.933 115.835 101.375L114.21 101.853C114.21 101.885 114.21 101.885 114.21 101.885Z" fill="white"/>
<path d="M145.108 84.7708L140.282 87.3289L181.233 164.594L186.059 162.036L145.108 84.7708Z" fill="#8C8C8C"/>
<path d="M172.951 98.254C171.555 95.6211 168.062 94.8036 164.709 94.0253C163.339 93.6963 160.827 93.2047 160.324 92.2549L153.819 79.9821L148.97 82.5521L155.843 95.5195C157.101 97.8939 160.202 98.6071 163.477 99.3709C164.92 99.6859 167.988 100.572 168.607 101.738C168.855 102.206 197.393 156.035 197.393 156.035L202.222 153.475L172.951 98.254Z" fill="#8C8C8C"/>
<path opacity="0.3" d="M156.752 60.2699L149.722 47.0053C145.069 38.2264 134.186 34.8699 125.398 39.5279C116.62 44.18 113.266 55.0658 117.925 63.8577L134.155 94.4784C139.424 96.4297 146.618 95.7823 153.328 92.2261C163.692 86.7333 168.99 76.4025 165.135 69.1305L163.324 65.7126C161.964 63.1501 159.639 61.3325 156.752 60.2699Z" fill="#FFEA00"/>
<path opacity="0.5" d="M156.752 60.2699L149.722 47.0053C145.069 38.2264 134.186 34.8699 125.398 39.5279C116.62 44.18 113.266 55.0658 117.925 63.8577L134.155 94.4784C139.424 96.4297 146.618 95.7823 153.328 92.2261C163.692 86.7333 168.99 76.4025 165.135 69.1305L163.324 65.7126C161.964 63.1501 159.639 61.3325 156.752 60.2699Z" fill="#E6E6E6"/>
<path opacity="0.9" d="M156.752 60.27L160.444 67.2367C163.701 73.3812 159.246 82.1398 150.452 86.8005C141.675 91.4525 131.913 90.2497 128.648 84.089L132.34 91.0557L134.153 94.4752C139.423 96.4282 146.616 95.7792 153.326 92.2229C163.69 86.7302 168.988 76.3993 165.134 69.129L163.323 65.7111C161.964 63.1501 159.639 61.3325 156.752 60.27Z" fill="#D1D1D1"/>
<path opacity="0.7" d="M156.752 60.27L160.444 67.2367C163.701 73.3812 159.246 82.1398 150.452 86.8005C141.675 91.4525 131.913 90.2497 128.648 84.089L132.34 91.0557L134.153 94.4752C139.423 96.4282 146.616 95.7792 153.326 92.2229C163.69 86.7302 168.988 76.3993 165.134 69.129L163.323 65.7111C161.964 63.1501 159.639 61.3325 156.752 60.27Z" fill="#FFEA00"/>
<path opacity="0.25" d="M156.752 60.27L160.444 67.2367C163.701 73.3812 159.246 82.1398 150.452 86.8005C141.675 91.4525 131.913 90.2497 128.648 84.089L132.34 91.0557C137.609 93.0054 144.804 92.3596 151.514 88.8034C161.877 83.3106 167.175 72.9798 163.322 65.7095C161.964 63.1501 159.639 61.3325 156.752 60.27Z" fill="#FFEA00"/>
<path opacity="0.25" d="M150.447 86.7907C159.228 82.1368 163.705 73.3814 160.448 67.2349C157.19 61.0884 147.431 59.8784 138.65 64.5323C129.869 69.1862 125.392 77.9416 128.65 84.0881C131.907 90.2346 141.666 91.4446 150.447 86.7907Z" fill="#E6E6E6"/>
<path opacity="0.25" d="M150.447 86.7907C159.228 82.1368 163.705 73.3814 160.448 67.2349C157.19 61.0884 147.431 59.8784 138.65 64.5323C129.869 69.1862 125.392 77.9416 128.65 84.0881C131.907 90.2346 141.666 91.4446 150.447 86.7907Z" fill="#FFEA00"/>
<path d="M125.911 66.9805L133.591 81.471L135.819 80.2905L132.237 73.5322L138.562 70.1797L142.428 55.8037L127.609 63.6576L125.911 66.9805Z" fill="#666666"/>
<path d="M143.813 54.2627L145.398 54.8875L141.695 68.5196L149.879 64.1817L153.461 70.94L155.511 69.8536L146.495 52.8416L143.813 54.2627Z" fill="#666666"/>
<path opacity="0.65" d="M156.752 60.2699L149.722 47.0053C145.069 38.2264 134.186 34.8699 125.398 39.5279C116.62 44.18 113.266 55.0658 117.925 63.8577L134.155 94.4784C139.424 96.4297 146.618 95.7823 153.328 92.2261C163.692 86.7333 168.99 76.4025 165.135 69.1305L163.324 65.7126C161.964 63.1501 159.639 61.3325 156.752 60.2699Z" fill="#FFEA00"/>
<path opacity="0.5" d="M137.266 44.0256L140.163 41.7038C136.929 40.1654 133.164 39.7878 129.556 40.8931L131.411 43.0154C133.447 42.7145 135.496 43.0936 137.266 44.0256Z" fill="white"/>
<path opacity="0.5" d="M134.913 91.7444L136.72 95.1543C138.805 95.5702 141.097 95.6401 143.463 95.3648L141.65 91.9437C139.279 92.2338 137.003 92.1594 134.913 91.7444Z" fill="white"/>
<path opacity="0.5" d="M158.368 80.1283C157.94 80.7069 157.453 81.2737 156.953 81.8261C156.845 81.9391 156.738 82.0561 156.623 82.1684C155.572 83.2409 154.397 84.2649 153.066 85.1878C152.909 85.2979 152.749 85.4096 152.585 85.4986C151.902 85.9474 151.21 86.3947 150.477 86.7834C150.144 86.9598 149.769 87.1151 149.39 87.2909C146.63 88.5904 143.788 89.3562 141.113 89.5529L131.138 70.7318L125.4 59.9063C123.651 56.6063 124.058 52.7743 126.07 49.9265L125.956 49.8335L121.359 47.925C118.806 52.1604 118.456 57.5743 120.94 62.2618L135.096 88.9703C134.926 88.9179 134.037 88.6437 133.389 88.3525L133.516 90.2606C138.422 91.9188 144.988 91.2544 151.121 88.0038C154.89 86.0065 157.939 83.3164 160.051 80.391L158.382 80.1002C158.368 80.1283 158.368 80.1283 158.368 80.1283Z" fill="white"/>
<path d="M90.717 122.161L88.6074 126.552L158.905 160.324L161.015 155.933L90.717 122.161Z" fill="#8C8C8C"/>
<path d="M117.838 117.097C115.443 115.946 112.503 117.209 109.685 118.425C108.527 118.915 106.464 119.891 105.6 119.476L94.4339 114.112L92.3145 118.524L104.113 124.192C106.273 125.23 108.876 124.1 111.63 122.914C112.833 122.376 115.504 121.387 116.565 121.897C116.991 122.102 165.972 145.625 165.972 145.625L168.083 141.231L117.838 117.097Z" fill="#8C8C8C"/>
<path opacity="0.3" d="M86.1023 98.4116L74.0339 92.6138C66.0465 88.7766 56.459 92.1293 52.6175 100.126C48.781 108.111 52.1367 117.7 60.1359 121.543L87.9954 134.927C92.8104 133.538 97.631 129.264 100.564 123.159C105.094 113.73 103.426 103.511 96.8101 100.332L93.7004 98.8385C91.3674 97.7196 88.7366 97.6459 86.1023 98.4116Z" fill="#E60000"/>
<path opacity="0.5" d="M86.1023 98.4116L74.0339 92.6138C66.0465 88.7766 56.459 92.1293 52.6175 100.126C48.781 108.111 52.1367 117.7 60.1359 121.543L87.9954 134.927C92.8104 133.538 97.631 129.264 100.564 123.159C105.094 113.73 103.426 103.511 96.8101 100.332L93.7004 98.8385C91.3674 97.7196 88.7366 97.6459 86.1023 98.4116Z" fill="#E6E6E6"/>
<path opacity="0.9" d="M86.1021 98.4116L92.4406 101.457C98.031 104.142 99.4707 112.787 95.6271 120.788C91.7906 128.774 84.1477 133.079 78.5426 130.386L84.881 133.431L87.9922 134.926C92.8087 133.537 97.6278 129.263 100.561 123.158C105.09 113.729 103.423 103.51 96.8084 100.332L93.6987 98.8378C91.3672 97.7195 88.7364 97.6459 86.1021 98.4116Z" fill="#D1D1D1"/>
<path opacity="0.7" d="M86.1021 98.4116L92.4406 101.457C98.031 104.142 99.4707 112.787 95.6271 120.788C91.7906 128.774 84.1477 133.079 78.5426 130.386L84.881 133.431L87.9922 134.926C92.8087 133.537 97.6278 129.263 100.561 123.158C105.09 113.729 103.423 103.51 96.8084 100.332L93.6987 98.8378C91.3672 97.7195 88.7364 97.6459 86.1021 98.4116Z" fill="#E60000"/>
<path opacity="0.25" d="M86.1021 98.4116L92.4406 101.457C98.031 104.142 99.4707 112.787 95.6271 120.788C91.7906 128.774 84.1477 133.079 78.5426 130.386L84.881 133.431C89.6946 132.041 94.5166 127.768 97.4494 121.663C101.979 112.234 100.312 102.015 93.6972 98.8371C91.3672 97.7195 88.7364 97.6459 86.1021 98.4116Z" fill="black"/>
<path opacity="0.25" d="M95.6186 120.784C99.4567 112.795 98.0346 104.14 92.4423 101.454C86.8501 98.7671 79.2053 103.066 75.3673 111.055C71.5293 119.044 72.9514 127.698 78.5436 130.385C84.1359 133.071 91.7806 128.773 95.6186 120.784Z" fill="#E6E6E6"/>
<path opacity="0.25" d="M95.6186 120.784C99.4567 112.795 98.0346 104.14 92.4423 101.454C86.8501 98.7671 79.2053 103.066 75.3673 111.055C71.5293 119.044 72.9514 127.698 78.5436 130.385C84.1359 133.071 91.7806 128.773 95.6186 120.784Z" fill="#E60000"/>
<path d="M67.5207 119.556L80.7047 125.89L81.6783 123.863L75.5294 120.909L78.2942 115.154L73.4573 102.79L66.9803 116.272L67.5207 119.556Z" fill="#666666"/>
<path d="M73.6353 100.951L75.1037 100.56L79.6631 112.304L83.2405 104.858L89.3894 107.812L90.2853 105.947L74.8073 98.5111L73.6353 100.951Z" fill="#666666"/>
<path opacity="0.65" d="M86.1023 98.4116L74.0339 92.6138C66.0465 88.7766 56.459 92.1293 52.6175 100.126C48.781 108.111 52.1367 117.7 60.1359 121.543L87.9954 134.927C92.8104 133.538 97.631 129.264 100.564 123.159C105.094 113.73 103.426 103.511 96.8101 100.332L93.7004 98.8385C91.3674 97.7196 88.7366 97.6459 86.1023 98.4116Z" fill="#E60000"/>
<path opacity="0.5" d="M63.5166 97.0698L64.3667 93.8697C61.2311 94.4778 58.329 96.2001 56.3247 98.9037L58.7798 99.4446C60.0815 98.1508 61.7525 97.3383 63.5166 97.0698Z" fill="white"/>
<path opacity="0.5" d="M87.0923 132.563L90.1946 134.054C91.9109 133.249 93.5931 132.085 95.1454 130.635L92.0327 129.14C90.4851 130.603 88.8122 131.754 87.0923 132.563Z" fill="white"/>
<path opacity="0.5" d="M97.7761 111.808C97.7753 112.45 97.7253 113.115 97.6592 113.776C97.6416 113.914 97.6264 114.055 97.6038 114.196C97.4169 115.523 97.116 116.88 96.649 118.247C96.5947 118.409 96.539 118.574 96.4685 118.725C96.216 119.408 95.9563 120.096 95.6358 120.763C95.4903 121.066 95.3034 121.376 95.1248 121.702C93.8318 124.096 92.1972 126.151 90.382 127.708L73.258 119.481L63.4086 114.75C60.4062 113.307 58.669 110.342 58.6053 107.233L58.4747 107.226L54.165 108.29C54.5749 112.682 57.19 116.753 61.4548 118.801L85.7549 130.475C85.6048 130.528 84.8223 130.802 84.2024 130.936L85.3044 132.238C89.7028 130.831 94.0639 126.877 96.7446 121.297C98.3918 117.869 99.1562 114.324 99.1228 111.106L97.7713 111.781C97.7761 111.808 97.7761 111.808 97.7761 111.808Z" fill="white"/>
<path d="M160.845 79.6675L155.643 81.0645L178.007 164.348L183.21 162.951L160.845 79.6675Z" fill="#8C8C8C"/>
<path d="M184.643 98.7549C183.881 95.9169 180.702 94.3624 177.651 92.8765C176.406 92.2588 174.1 91.2336 173.825 90.2098L170.273 76.981L165.046 78.3845L168.799 92.362C169.487 94.9214 172.31 96.2893 175.29 97.744C176.608 98.3644 179.363 99.8909 179.7 101.148C179.836 101.653 195.425 159.676 195.425 159.676L200.63 158.278L184.643 98.7549Z" fill="#8C8C8C"/>
<path opacity="0.3" d="M177.43 58.6775L173.59 44.3796C171.049 34.9167 161.326 29.2957 151.853 31.8396C142.392 34.3802 136.772 44.1063 139.317 53.5831L148.18 86.589C152.816 89.6243 159.874 90.5849 167.107 88.6428C178.277 85.643 185.643 76.8779 183.539 69.0395L182.549 65.3554C181.806 62.5927 179.971 60.334 177.43 58.6775Z" fill="#00B33B"/>
<path opacity="0.9" d="M177.43 58.6774L179.446 66.1868C181.225 72.8099 175.015 80.2491 165.536 82.7944C156.075 85.335 146.956 82.0308 145.173 75.3903L147.189 82.8996L148.179 86.5855C152.816 89.6225 159.873 90.5814 167.106 88.6392C178.277 85.6395 185.643 76.8744 183.538 69.0378L182.549 65.3536C181.806 62.5927 179.971 60.334 177.43 58.6774Z" fill="#D1D1D1"/>
<path opacity="0.7" d="M177.43 58.6774L179.446 66.1868C181.225 72.8099 175.015 80.2491 165.536 82.7944C156.075 85.335 146.956 82.0308 145.173 75.3903L147.189 82.8996L148.179 86.5855C152.816 89.6225 159.873 90.5814 167.106 88.6392C178.277 85.6395 185.643 76.8744 183.538 69.0378L182.549 65.3536C181.806 62.5927 179.971 60.334 177.43 58.6774Z" fill="#00B33B"/>
<path opacity="0.25" d="M177.43 58.6774L179.446 66.1868C181.225 72.8099 175.015 80.2491 165.536 82.7944C156.075 85.335 146.956 82.0308 145.173 75.3903L147.189 82.8996C151.825 85.9331 158.883 86.8955 166.116 84.9534C177.287 81.9536 184.653 73.1885 182.548 65.3519C181.806 62.5927 179.971 60.334 177.43 58.6774Z" fill="black"/>
<path opacity="0.25" d="M165.533 82.784C174.998 80.2424 181.229 72.8111 179.45 66.1859C177.671 59.5606 168.556 56.2501 159.091 58.7917C149.626 61.3333 143.395 68.7645 145.174 75.3898C146.954 82.0151 156.069 85.3256 165.533 82.784Z" fill="#E6E6E6"/>
<path opacity="0.25" d="M165.533 82.784C174.998 80.2424 181.229 72.8111 179.45 66.1859C177.671 59.5606 168.556 56.2501 159.091 58.7917C149.626 61.3333 143.395 68.7645 145.174 75.3898C146.954 82.0151 156.069 85.3256 165.533 82.784Z" fill="#00B33B"/>
<path d="M146.306 58.342L150.501 73.9614L152.902 73.3167L150.945 66.0319L157.763 64.201L164.643 51.2323L148.67 55.5215L146.306 58.342Z" fill="#666666"/>
<path d="M166.313 50.0557L167.699 51.0051L161.14 63.2944L169.962 60.9254L171.918 68.2101L174.128 67.6168L169.203 49.2796L166.313 50.0557Z" fill="#666666"/>
<path opacity="0.65" d="M177.43 58.6775L173.59 44.3796C171.049 34.9167 161.326 29.2957 151.853 31.8396C142.392 34.3802 136.772 44.1063 139.317 53.5831L148.18 86.589C152.816 89.6243 159.874 90.5849 167.107 88.6428C178.277 85.643 185.643 76.8779 183.539 69.0395L182.549 65.3554C181.806 62.5927 179.971 60.334 177.43 58.6775Z" fill="#00B33B"/>
<path opacity="0.5" d="M162.272 38.7744L165.568 37.18C162.798 34.9896 159.262 33.7981 155.55 34.0668L156.867 36.5151C158.89 36.6737 160.776 37.4889 162.272 38.7744Z" fill="white"/>
<path opacity="0.5" d="M149.511 84.1279L150.498 87.8033C152.41 88.6618 154.598 89.2334 156.933 89.4893L155.943 85.8017C153.6 85.559 151.429 84.9867 149.511 84.1279Z" fill="white"/>
<path opacity="0.5" d="M174.614 78.1225C174.075 78.5845 173.482 79.022 172.88 79.4431C172.751 79.528 172.622 79.6168 172.487 79.6996C171.241 80.4992 169.886 81.225 168.403 81.8193C168.228 81.8906 168.05 81.9627 167.873 82.0122C167.117 82.2934 166.354 82.5712 165.563 82.7834C165.205 82.8798 164.81 82.9465 164.408 83.0322C161.468 83.6741 158.567 83.7848 155.953 83.3855L150.505 63.0982L147.372 51.4294C146.417 47.8724 147.651 44.2782 150.211 41.9833L150.123 41.869L146.124 39.0229C142.737 42.5325 141.21 47.6597 142.566 52.7124L150.297 81.5014C150.145 81.4135 149.351 80.9546 148.792 80.5318L148.495 82.3942C152.845 85.0675 159.304 85.8737 165.915 84.0984C169.977 83.0077 173.5 81.0928 176.174 78.7452L174.634 78.0985C174.614 78.1225 174.614 78.1225 174.614 78.1225Z" fill="white"/>
<path d="M122.17 95.9504L118.044 99.4129L173.474 165.472L177.601 162.009L122.17 95.9504Z" fill="#8C8C8C"/>
<path d="M151.801 103.208C149.912 100.957 146.375 100.89 142.981 100.831C141.592 100.796 139.069 100.84 138.387 100.028L129.583 89.5354L125.437 93.0141L134.74 104.101C136.443 106.131 139.581 106.179 142.896 106.24C144.353 106.246 147.494 106.467 148.331 107.464C148.667 107.864 187.292 153.885 187.292 153.885L191.421 150.42L151.801 103.208Z" fill="#8C8C8C"/>
<path opacity="0.3" d="M128.344 69.9214L118.828 58.5806C112.53 51.0748 101.344 50.0833 93.8295 56.3883C86.3251 62.6853 85.3359 73.8748 91.6433 81.3916L113.611 107.571C119.095 108.366 125.899 106.257 131.635 101.444C140.496 94.0088 143.473 82.9536 138.257 76.7363L135.804 73.8141C133.964 71.6236 131.347 70.3505 128.344 69.9214Z" fill="#CCCCCC"/>
<path opacity="0.5" d="M128.344 69.9214L118.828 58.5806C112.53 51.0748 101.344 50.0833 93.8295 56.3883C86.3251 62.6853 85.3359 73.8748 91.6433 81.3916L113.611 107.571C119.095 108.366 125.899 106.257 131.635 101.444C140.496 94.0088 143.473 82.9536 138.257 76.7363L135.804 73.8141C133.964 71.6236 131.347 70.3505 128.344 69.9214Z" fill="#E6E6E6"/>
<path opacity="0.9" d="M128.344 69.9214L133.342 75.8777C137.75 81.131 135.261 90.4964 127.743 96.8049C120.238 103.102 110.577 103.956 106.157 98.6887L111.155 104.645L113.608 107.569C119.093 108.365 125.896 106.255 131.633 101.441C140.493 94.006 143.471 82.9508 138.255 76.7349L135.803 73.8127C133.964 71.6236 131.347 70.3505 128.344 69.9214Z" fill="#D1D1D1"/>
<path opacity="0.7" d="M128.344 69.9214L133.342 75.8777C137.75 81.131 135.261 90.4964 127.743 96.8049C120.238 103.102 110.577 103.956 106.157 98.6887L111.155 104.645L113.608 107.569C119.093 108.365 125.896 106.255 131.633 101.441C140.493 94.006 143.471 82.9508 138.255 76.7349L135.803 73.8127C133.964 71.6236 131.347 70.3505 128.344 69.9214Z" fill="#E6E6E6"/>
<path opacity="0.25" d="M128.344 69.9214L133.342 75.8777C137.75 81.131 135.261 90.4964 127.743 96.8049C120.238 103.102 110.577 103.956 106.157 98.6887L111.155 104.645C116.638 105.438 123.443 103.331 129.18 98.5173C138.04 91.0825 141.018 80.0272 135.802 73.8113C133.964 71.6236 131.347 70.3505 128.344 69.9214Z" fill="#E6E6E6"/>
<path opacity="0.25" d="M127.736 96.7965C135.243 90.4971 137.754 81.1304 133.345 75.8753C128.935 70.6203 119.275 71.4669 111.768 77.7663C104.26 84.0657 101.749 93.4324 106.158 98.6875C110.568 103.943 120.229 103.096 127.736 96.7965Z" fill="#E6E6E6"/>
<path opacity="0.25" d="M127.736 96.7965C135.243 90.4971 137.754 81.1304 133.345 75.8753C128.935 70.6203 119.275 71.4669 111.768 77.7663C104.26 84.0657 101.749 93.4324 106.158 98.6875C110.568 103.943 120.229 103.096 127.736 96.7965Z" fill="#E6E6E6"/>
<path d="M99.9888 82.7552L110.384 95.1442L112.289 93.5462L107.44 87.7681L112.848 83.2302L113.61 68.5697L100.941 79.2005L99.9888 82.7552Z" fill="#666666"/>
<path d="M114.628 66.7979L116.285 67.0735L115.526 80.9831L122.524 75.1115L127.372 80.8896L129.124 79.4191L116.92 64.8743L114.628 66.7979Z" fill="#666666"/>
<path opacity="0.65" d="M128.344 69.9214L118.828 58.5806C112.53 51.0748 101.344 50.0833 93.8295 56.3883C86.3251 62.6853 85.3359 73.8748 91.6433 81.3916L113.611 107.571C119.095 108.366 125.899 106.257 131.635 101.444C140.496 94.0088 143.473 82.9536 138.257 76.7363L135.804 73.8141C133.964 71.6236 131.347 70.3505 128.344 69.9214Z" fill="#ECECEC"/>
<path opacity="0.5" d="M106.202 58.2769L108.517 55.4403C105.081 54.624 101.372 55.0366 98.1211 56.8469L100.348 58.5107C102.249 57.8005 104.303 57.7434 106.202 58.2769Z" fill="white"/>
<path opacity="0.5" d="M113.778 104.778L116.225 107.694C118.321 107.665 120.545 107.259 122.77 106.506L120.316 103.581C118.09 104.349 115.88 104.747 113.778 104.778Z" fill="white"/>
<path opacity="0.5" d="M134 88.7377C133.706 89.3839 133.353 90.0311 132.985 90.6669C132.905 90.7981 132.825 90.9331 132.738 91.065C131.945 92.3162 131.024 93.5459 129.93 94.7107C129.801 94.8492 129.67 94.9899 129.53 95.1095C128.965 95.6832 128.39 96.2573 127.763 96.7834C127.478 97.0222 127.149 97.2493 126.82 97.4969C124.426 99.3195 121.843 100.644 119.305 101.386L105.802 85.2944L98.0362 76.0389C95.6687 73.2175 95.27 69.4384 96.6227 66.2771L96.4942 66.2108L91.6674 65.3189C90.0791 69.9299 90.8585 75.2228 94.2213 79.2305L113.382 102.065C113.207 102.05 112.294 101.969 111.608 101.822L112.125 103.636C117.197 104.223 123.393 102.227 128.636 97.8273C131.858 95.1238 134.244 91.9005 135.677 88.6438L134.007 88.7077C134 88.7377 134 88.7377 134 88.7377Z" fill="white"/>
</g>
</g>
<defs>
<filter id="filter0_f_1006_375" x="15.6675" y="-3.5946" width="222.5" height="208.186" filterUnits="userSpaceOnUse" color-interpolation-filters="sRGB">
<feFlood flood-opacity="0" result="BackgroundImageFix"/>
<feBlend mode="normal" in="SourceGraphic" in2="BackgroundImageFix" result="shape"/>
<feGaussianBlur stdDeviation="15" result="effect1_foregroundBlur_1006_375"/>
</filter>
<clipPath id="clip0_1006_375">
<rect width="194" height="159" rx="15" fill="white"/>
</clipPath>
</defs>
</svg>
