<svg width="150" height="138" viewBox="0 0 150 138" fill="none" xmlns="http://www.w3.org/2000/svg">
<g clip-path="url(#clip0_1006_287)">
<g clip-path="url(#clip1_1006_287)" filter="url(#filter0_f_1006_287)">
<path d="M105.954 34.0519L104.618 32.4601C104.283 32.0602 103.686 32.007 103.286 32.343L45.0378 81.219C44.6375 81.5549 44.5862 82.1514 44.9218 82.5513L46.2568 84.1423C46.8289 84.0109 47.4518 84.1787 47.8548 84.6591C48.2572 85.1386 48.315 85.782 48.0856 86.3217L52.4295 91.4987C53.0009 91.3664 53.6245 91.5351 54.0269 92.0146C54.4299 92.4949 54.487 93.1375 54.2583 93.6781L58.6009 98.8535C59.173 98.722 59.7959 98.8899 60.1989 99.3702C60.6013 99.8497 60.6591 100.493 60.4297 101.033L64.7717 106.207C65.3437 106.076 65.9667 106.244 66.3697 106.724C66.7721 107.204 66.8299 107.847 66.6004 108.387L70.9418 113.561C71.5132 113.429 72.1368 113.597 72.5392 114.077C72.9422 114.557 72.9993 115.2 72.7705 115.74L77.1126 120.915C77.684 120.783 78.3075 120.951 78.7099 121.431C79.113 121.911 79.1701 122.554 78.9413 123.094L83.2833 128.269C83.8547 128.137 84.4783 128.305 84.8807 128.785C85.2837 129.265 85.3409 129.908 85.1121 130.448L89.4541 135.623C90.0255 135.491 90.6491 135.659 91.0515 136.139C91.4545 136.619 91.5116 137.262 91.2828 137.802L95.6242 142.976C96.1963 142.845 96.8198 143.013 97.2222 143.493C97.6252 143.973 97.6824 144.616 97.4536 145.156L101.795 150.33C102.367 150.199 102.991 150.367 103.393 150.847C103.796 151.327 103.853 151.97 103.624 152.51L107.966 157.684C108.538 157.553 109.161 157.721 109.564 158.201C109.967 158.681 110.024 159.324 109.795 159.864L114.137 165.038C114.709 164.907 115.332 165.075 115.735 165.555C116.137 166.035 116.195 166.678 115.966 167.218L120.308 172.393C120.879 172.261 121.502 172.429 121.905 172.909C122.308 173.389 122.365 174.032 122.136 174.572L126.478 179.747C127.05 179.615 127.673 179.783 128.076 180.263C128.479 180.743 128.536 181.386 128.307 181.926L132.649 187.1C133.221 186.969 133.844 187.137 134.247 187.617C134.65 188.097 134.707 188.74 134.478 189.28L138.82 194.455C139.392 194.323 140.015 194.491 140.418 194.971C140.82 195.451 140.878 196.094 140.649 196.634L144.99 201.809C145.562 201.677 146.185 201.845 146.588 202.325C146.991 202.805 147.048 203.448 146.819 203.988L151.161 209.163C151.733 209.031 152.356 209.199 152.759 209.679C153.162 210.159 153.219 210.802 152.99 211.342L157.332 216.517C157.904 216.385 158.527 216.553 158.93 217.033C159.333 217.513 159.39 218.156 159.161 218.696L163.502 223.87C164.074 223.738 164.697 223.906 165.1 224.386C165.502 224.866 165.56 225.509 165.331 226.049L166.682 227.66C167.018 228.059 167.614 228.112 168.014 227.776L226.262 178.901C226.662 178.565 226.715 177.969 226.379 177.569L225.027 175.958C224.455 176.09 223.832 175.922 223.429 175.441C223.027 174.961 222.969 174.318 223.198 173.778L218.857 168.605C218.286 168.737 217.662 168.569 217.26 168.088C216.857 167.608 216.799 166.966 217.028 166.425L212.687 161.251C212.115 161.383 211.492 161.214 211.089 160.734C210.686 160.254 210.629 159.611 210.858 159.071L206.516 153.897C205.944 154.029 205.321 153.86 204.918 153.38C204.515 152.9 204.458 152.257 204.687 151.717L200.345 146.543C199.773 146.675 199.15 146.507 198.747 146.026C198.345 145.546 198.287 144.904 198.516 144.363L194.174 139.189C193.603 139.321 192.979 139.152 192.577 138.672C192.174 138.192 192.116 137.549 192.345 137.009L188.004 131.835C187.432 131.967 186.809 131.798 186.406 131.318C186.003 130.838 185.946 130.195 186.175 129.655L181.833 124.481C181.261 124.613 180.638 124.444 180.235 123.964C179.832 123.484 179.775 122.841 180.004 122.301L175.662 117.127C175.09 117.259 174.467 117.09 174.064 116.61C173.662 116.13 173.604 115.487 173.833 114.947L169.491 109.773C168.92 109.905 168.296 109.736 167.894 109.256C167.491 108.776 167.433 108.133 167.662 107.593L163.321 102.419C162.749 102.55 162.126 102.383 161.723 101.902C161.32 101.423 161.263 100.779 161.491 100.239L157.15 95.065C156.578 95.1964 155.955 95.0286 155.552 94.5483C155.15 94.0687 155.092 93.4253 155.321 92.8849L150.979 87.711C150.407 87.8424 149.784 87.6745 149.381 87.1942C148.979 86.7147 148.921 86.0713 149.15 85.5316L144.808 80.357C144.236 80.4884 143.614 80.3205 143.211 79.8402C142.808 79.3607 142.75 78.7173 142.98 78.1776L138.638 73.003C138.066 73.1343 137.443 72.9665 137.04 72.4862C136.637 72.0066 136.58 71.3632 136.809 70.8236L132.467 65.6489C131.895 65.7803 131.272 65.6125 130.869 65.1321C130.467 64.6526 130.409 64.0092 130.638 63.4695L126.297 58.2957C125.725 58.4278 125.102 58.2592 124.7 57.7797C124.296 57.2993 124.239 56.6567 124.468 56.1163L120.126 50.9416C119.555 51.0738 118.931 50.9052 118.529 50.4256C118.126 49.9453 118.069 49.3027 118.297 48.7622L113.955 43.5868C113.383 43.7182 112.76 43.5504 112.357 43.0701C111.954 42.5905 111.897 41.9471 112.126 41.4074L107.783 36.2321C107.211 36.3634 106.588 36.1956 106.185 35.7153C105.782 35.235 105.725 34.5923 105.954 34.0519ZM169.55 222.732C168.875 223.298 167.867 223.209 167.301 222.535C166.735 221.861 166.824 220.852 167.498 220.287C168.172 219.721 169.181 219.809 169.746 220.484C170.312 221.158 170.224 222.166 169.55 222.732ZM163.38 215.379C162.706 215.945 161.697 215.856 161.131 215.182C160.566 214.508 160.654 213.499 161.328 212.934C162.002 212.368 163.011 212.456 163.576 213.13C164.142 213.805 164.054 214.813 163.38 215.379ZM157.209 208.025C156.535 208.591 155.526 208.502 154.96 207.828C154.395 207.154 154.483 206.145 155.157 205.58C155.831 205.014 156.84 205.102 157.406 205.776C157.971 206.451 157.883 207.459 157.209 208.025ZM151.038 200.671C150.364 201.237 149.355 201.148 148.79 200.474C148.224 199.8 148.312 198.791 148.986 198.226C149.661 197.66 150.669 197.748 151.235 198.422C151.801 199.097 151.712 200.105 151.038 200.671ZM144.867 193.317C144.193 193.883 143.185 193.794 142.619 193.12C142.053 192.446 142.142 191.437 142.816 190.872C143.49 190.306 144.499 190.394 145.064 191.068C145.63 191.743 145.542 192.751 144.867 193.317ZM138.697 185.963C138.023 186.529 137.014 186.44 136.448 185.766C135.883 185.092 135.971 184.083 136.645 183.518C137.319 182.952 138.329 183.041 138.893 183.714C139.459 184.389 139.371 185.397 138.697 185.963ZM132.526 178.609C131.852 179.175 130.843 179.086 130.278 178.412C129.712 177.738 129.8 176.729 130.474 176.164C131.148 175.598 132.158 175.687 132.723 176.36C133.288 177.035 133.2 178.043 132.526 178.609ZM126.355 171.255C125.681 171.821 124.672 171.732 124.107 171.058C123.541 170.384 123.629 169.375 124.303 168.81C124.978 168.244 125.986 168.332 126.552 169.006C127.118 169.681 127.029 170.689 126.355 171.255ZM120.184 163.901C119.51 164.467 118.502 164.378 117.936 163.704C117.37 163.03 117.459 162.021 118.133 161.456C118.807 160.89 119.816 160.978 120.381 161.652C120.947 162.327 120.859 163.335 120.184 163.901ZM114.014 156.547C113.34 157.113 112.331 157.024 111.765 156.35C111.2 155.676 111.288 154.667 111.962 154.102C112.636 153.536 113.645 153.624 114.21 154.298C114.776 154.973 114.688 155.981 114.014 156.547ZM107.843 149.193C107.169 149.759 106.16 149.67 105.594 148.996C105.029 148.322 105.117 147.313 105.791 146.747C106.465 146.182 107.475 146.271 108.039 146.944C108.605 147.618 108.517 148.627 107.843 149.193ZM101.672 141.839C100.998 142.404 99.9891 142.316 99.4235 141.642C98.8578 140.968 98.946 139.959 99.6201 139.393C100.294 138.828 101.304 138.917 101.869 139.59C102.434 140.264 102.346 141.273 101.672 141.839ZM95.5012 134.485C94.8271 135.05 93.819 134.963 93.2527 134.288C92.6871 133.614 92.7759 132.606 93.45 132.04C94.1242 131.474 95.1322 131.562 95.6979 132.236C96.2642 132.911 96.1753 133.919 95.5012 134.485ZM89.3304 127.131C88.6563 127.696 87.6482 127.609 87.0826 126.935C86.5169 126.26 86.6052 125.252 87.2793 124.686C87.9534 124.12 88.9621 124.209 89.5278 124.883C90.0934 125.557 90.0045 126.565 89.3304 127.131ZM83.1596 119.776C82.4855 120.342 81.4775 120.255 80.9118 119.58C80.3462 118.906 80.4344 117.898 81.1085 117.332C81.7827 116.766 82.7914 116.855 83.357 117.529C83.9227 118.203 83.8338 119.211 83.1596 119.776ZM76.9895 112.423C76.3154 112.989 75.3067 112.901 74.7411 112.226C74.1754 111.552 74.2637 110.544 74.9377 109.978C75.6119 109.412 76.6212 109.501 77.1863 110.175C77.7519 110.849 77.6637 111.858 76.9895 112.423ZM70.8194 105.07C70.1453 105.636 69.1366 105.547 68.5709 104.873C68.0053 104.199 68.0935 103.19 68.7676 102.625C69.4418 102.059 70.4505 102.147 71.0161 102.821C71.5818 103.496 71.4936 104.504 70.8194 105.07ZM64.6493 97.7167C63.9752 98.2823 62.9665 98.1941 62.4008 97.5199C61.8352 96.8458 61.9234 95.8371 62.5975 95.2715C63.2717 94.7058 64.2804 94.7941 64.846 95.4682C65.4117 96.1423 65.3234 97.151 64.6493 97.7167ZM58.4779 90.3619C57.8038 90.9275 56.7951 90.8393 56.2294 90.1652C55.6638 89.491 55.752 88.4823 56.4261 87.9167C57.1002 87.351 58.1096 87.44 58.6746 88.1134C59.2403 88.7875 59.152 89.7962 58.4779 90.3619ZM52.3065 83.0071C51.6324 83.5727 50.6237 83.4845 50.058 82.8104C49.4924 82.1362 49.5806 81.1275 50.2547 80.5619C50.9288 79.9962 51.9376 80.0845 52.5032 80.7586C53.0689 81.4327 52.9806 82.4414 52.3065 83.0071ZM178.293 214.365C176.874 215.556 174.752 215.37 173.56 213.95C172.369 212.53 172.555 210.408 173.973 209.217C175.392 208.027 177.515 208.212 178.706 209.632C179.897 211.052 179.712 213.175 178.293 214.365ZM64.3483 78.5709C62.9295 79.7614 60.8073 79.5762 59.6156 78.1559C58.4245 76.7365 58.6112 74.6151 60.03 73.4246C61.4487 72.2343 63.5709 72.4194 64.7614 73.8381C65.9518 75.2569 65.7669 77.3805 64.3483 78.5709ZM152.237 146.392C151.522 146.992 150.582 146.91 149.982 146.195C149.382 145.48 149.465 144.541 150.18 143.941C150.895 143.341 151.834 143.423 152.434 144.138C152.932 144.939 152.849 145.878 152.237 146.392ZM159.591 140.221C158.876 140.821 157.936 140.739 157.336 140.024C156.737 139.309 156.819 138.37 157.534 137.77C158.249 137.17 159.188 137.252 159.788 137.967C160.286 138.768 160.203 139.707 159.591 140.221ZM211.27 186.694C209.85 187.886 207.727 187.7 206.536 186.28C205.345 184.86 205.53 182.738 206.95 181.546C208.369 180.356 210.492 180.542 211.683 181.961C212.874 183.381 212.688 185.504 211.27 186.694ZM164.69 133.853C164.091 133.139 164.173 132.199 164.888 131.599C165.603 130.999 166.542 131.082 167.142 131.797C167.64 132.597 167.557 133.536 166.945 134.051C166.23 134.651 165.29 134.569 164.69 133.853ZM97.325 50.9001C95.9053 52.0915 93.783 51.9063 92.5913 50.4861C91.4002 49.0666 91.587 46.9452 93.0068 45.7538C94.4254 44.5635 96.5477 44.7486 97.7381 46.1674C98.9286 47.5861 98.7437 49.7098 97.325 50.9001ZM221.028 179.537C220.354 180.102 219.345 180.014 218.779 179.34C218.214 178.666 218.302 177.657 218.976 177.091C219.65 176.526 220.659 176.614 221.225 177.288C221.79 177.962 221.702 178.971 221.028 179.537ZM214.858 172.184C214.184 172.749 213.175 172.661 212.61 171.987C212.044 171.313 212.132 170.304 212.806 169.738C213.48 169.173 214.489 169.261 215.055 169.935C215.62 170.609 215.532 171.618 214.858 172.184ZM208.687 164.83C208.013 165.395 207.004 165.307 206.439 164.633C205.873 163.959 205.961 162.95 206.635 162.384C207.31 161.819 208.318 161.907 208.884 162.581C209.45 163.255 209.361 164.264 208.687 164.83ZM202.516 157.476C201.842 158.041 200.834 157.953 200.268 157.279C199.702 156.605 199.791 155.596 200.465 155.03C201.139 154.465 202.148 154.553 202.713 155.227C203.279 155.901 203.191 156.91 202.516 157.476ZM196.346 150.122C195.672 150.687 194.663 150.599 194.097 149.925C193.532 149.251 193.62 148.242 194.294 147.676C194.968 147.111 195.977 147.199 196.542 147.873C197.108 148.547 197.02 149.556 196.346 150.122ZM190.175 142.768C189.501 143.333 188.492 143.245 187.927 142.571C187.361 141.897 187.449 140.888 188.123 140.322C188.797 139.757 189.806 139.845 190.372 140.519C190.937 141.193 190.849 142.202 190.175 142.768ZM184.004 135.414C183.33 135.979 182.321 135.891 181.756 135.217C181.19 134.543 181.278 133.534 181.952 132.968C182.627 132.403 183.635 132.491 184.201 133.165C184.767 133.839 184.678 134.848 184.004 135.414ZM177.833 128.06C177.159 128.625 176.151 128.537 175.585 127.863C175.019 127.189 175.108 126.18 175.782 125.614C176.456 125.049 177.465 125.137 178.03 125.811C178.596 126.485 178.508 127.494 177.833 128.06ZM171.663 120.706C170.989 121.271 169.98 121.183 169.414 120.509C168.849 119.835 168.937 118.826 169.611 118.26C170.285 117.695 171.294 117.783 171.86 118.457C172.425 119.131 172.337 120.14 171.663 120.706ZM165.492 113.352C164.818 113.917 163.809 113.829 163.244 113.155C162.678 112.481 162.766 111.472 163.44 110.906C164.114 110.341 165.123 110.429 165.689 111.103C166.254 111.777 166.166 112.786 165.492 113.352ZM159.321 105.998C158.647 106.563 157.638 106.475 157.073 105.8C156.507 105.126 156.595 104.118 157.269 103.552C157.943 102.986 158.952 103.075 159.518 103.749C160.083 104.423 159.995 105.432 159.321 105.998ZM153.15 98.6432C152.476 99.2088 151.467 99.1205 150.902 98.4464C150.336 97.7723 150.424 96.7635 151.098 96.198C151.773 95.6322 152.781 95.7205 153.347 96.3946C153.913 97.0687 153.824 98.0775 153.15 98.6432ZM146.979 91.2892C146.305 91.8547 145.297 91.7672 144.731 91.0924C144.165 90.4182 144.254 89.4103 144.928 88.8447C145.602 88.279 146.611 88.3665 147.176 89.0406C147.743 89.7155 147.654 90.7234 146.979 91.2892ZM140.809 83.9351C140.135 84.5007 139.127 84.4132 138.561 83.7391C137.995 83.065 138.083 82.0563 138.758 81.4907C139.432 80.925 140.44 81.0132 141.006 81.6873C141.572 82.3614 141.483 83.3694 140.809 83.9351ZM134.638 76.5811C133.964 77.1467 132.956 77.0592 132.39 76.3851C131.824 75.711 131.913 74.7022 132.587 74.1366C133.261 73.5709 134.27 73.6592 134.835 74.3333C135.401 75.0074 135.312 76.0154 134.638 76.5811ZM128.468 69.2278C127.794 69.7934 126.785 69.7052 126.219 69.031C125.654 68.3569 125.742 67.3482 126.416 66.7826C127.09 66.2169 128.099 66.3052 128.665 66.9793C129.23 67.6534 129.142 68.6621 128.468 69.2278ZM122.298 61.8746C121.624 62.4402 120.615 62.3519 120.049 61.6778C119.484 61.0037 119.572 59.995 120.246 59.4294C120.92 58.8636 121.929 58.9519 122.494 59.626C123.06 60.3001 122.972 61.3089 122.298 61.8746ZM116.128 54.5213C115.453 55.0869 114.445 54.9986 113.879 54.3245C113.313 53.6504 113.402 52.6417 114.076 52.0761C114.75 51.5104 115.759 51.5986 116.324 52.2728C116.89 52.9469 116.802 53.9556 116.128 54.5213ZM109.956 47.1665C109.282 47.7321 108.273 47.6439 107.708 46.9697C107.142 46.2956 107.23 45.2869 107.904 44.7213C108.579 44.1556 109.587 44.2438 110.153 44.918C110.719 45.5921 110.63 46.6008 109.956 47.1665ZM103.785 39.8117C103.111 40.3773 102.102 40.2891 101.536 39.6149C100.971 38.9408 101.059 37.9321 101.733 37.3665C102.407 36.8008 103.416 36.8891 103.982 37.5632C104.547 38.2373 104.459 39.246 103.785 39.8117Z" fill="#066938"/>
<path d="M112.555 40.7983L108.457 35.914C108.255 36.0828 108.022 36.1764 107.782 36.2321L112.125 41.4075C112.221 41.1803 112.354 40.9671 112.555 40.7983Z" fill="#014F29"/>
<path d="M118.725 48.1523L114.627 43.2681C114.426 43.4369 114.193 43.5305 113.952 43.5861L118.295 48.7615C118.392 48.5351 118.524 48.3212 118.725 48.1523Z" fill="#014F29"/>
<path d="M124.896 55.5064L120.799 50.6229C120.597 50.7917 120.364 50.8853 120.124 50.9409L124.465 56.1148C124.562 55.8876 124.695 55.6752 124.896 55.5064Z" fill="#014F29"/>
<path d="M131.066 62.8596L126.969 57.9768C126.768 58.1457 126.535 58.2393 126.295 58.2949L130.635 63.468C130.732 63.2408 130.865 63.0285 131.066 62.8596Z" fill="#014F29"/>
<path d="M137.237 70.2137L133.139 65.3301C132.938 65.499 132.705 65.5918 132.464 65.6474L136.806 70.8221C136.903 70.5949 137.036 70.3825 137.237 70.2137Z" fill="#014F29"/>
<path d="M143.408 77.5677L139.31 72.6841C139.109 72.853 138.876 72.9466 138.636 73.0022L142.977 78.1761C143.074 77.9489 143.207 77.7365 143.408 77.5677Z" fill="#014F29"/>
<path d="M149.578 84.9209L145.481 80.0381C145.28 80.207 145.046 80.2999 144.805 80.3555L149.147 85.5301C149.244 85.3029 149.377 85.0898 149.578 84.9209Z" fill="#014F29"/>
<path d="M104.044 31.3442L103.975 32.1267C104.215 32.1472 104.448 32.2594 104.617 32.4601L105.952 34.0512C106.048 33.824 106.18 33.6101 106.382 33.4412L105.07 31.8785C104.802 31.5591 104.431 31.3783 104.044 31.3442Z" fill="#014F29"/>
<path d="M102.942 31.6908L44.4566 80.7656C43.8172 81.3021 43.7335 82.2561 44.2702 82.8957L45.5834 84.4608C45.7846 84.2919 46.0176 84.1983 46.2581 84.1427L44.9224 82.5508C44.5869 82.1509 44.6381 81.5545 45.0385 81.2185L103.287 32.3426C103.487 32.1745 103.736 32.104 103.977 32.1261L104.046 31.3435C103.659 31.3094 103.261 31.4226 102.942 31.6908Z" fill="#338761"/>
<path d="M53.8276 94.2861L57.9261 99.1704C58.1273 99.0016 58.3609 98.9087 58.6014 98.853L54.2587 93.6777C54.1616 93.9041 54.0289 94.1173 53.8276 94.2861Z" fill="#338761"/>
<path d="M59.9987 101.64L64.0965 106.524C64.2977 106.355 64.5313 106.262 64.7718 106.206L60.4298 101.032C60.3333 101.259 60.1999 101.471 59.9987 101.64Z" fill="#338761"/>
<path d="M66.1699 108.995L70.2664 113.877C70.4676 113.708 70.7012 113.615 70.9417 113.56L66.6003 108.386C66.5032 108.612 66.3711 108.826 66.1699 108.995Z" fill="#338761"/>
<path d="M72.3395 116.347L76.4373 121.231C76.6385 121.062 76.8721 120.969 77.1126 120.914L72.7706 115.739C72.6734 115.965 72.5407 116.179 72.3395 116.347Z" fill="#338761"/>
<path d="M78.5101 123.701L82.6072 128.584C82.8084 128.415 83.042 128.322 83.2826 128.267L78.9405 123.092C78.8433 123.319 78.7113 123.533 78.5101 123.701Z" fill="#338761"/>
<path d="M84.681 131.055L88.7787 135.939C88.98 135.77 89.2129 135.676 89.4535 135.621L85.1121 130.447C85.0142 130.673 84.8822 130.887 84.681 131.055Z" fill="#338761"/>
<path d="M90.8519 138.409L94.9496 143.293C95.1509 143.124 95.3838 143.03 95.6244 142.975L91.283 137.801C91.1851 138.027 91.0531 138.241 90.8519 138.409Z" fill="#338761"/>
<path d="M47.6563 86.9313L51.7547 91.8156C51.9559 91.6468 52.1895 91.5539 52.43 91.4982L48.0867 86.3221C47.9902 86.5493 47.8575 86.7625 47.6563 86.9313Z" fill="#338761"/>
<path d="M66.0621 80.6118C63.5166 82.7477 59.7083 82.4147 57.573 79.8699C55.4377 77.3251 55.771 73.5169 58.3165 71.381C60.861 69.2459 64.6691 69.579 66.8045 72.1238C68.9398 74.6686 68.6066 78.4767 66.0621 80.6118ZM60.0308 73.424C58.6114 74.615 58.426 76.7378 59.6158 78.1558C60.8063 79.5745 62.929 79.7605 64.3484 78.5695C65.7667 77.3794 65.9521 75.2566 64.7616 73.8379C63.5718 72.4199 61.4491 72.2339 60.0308 73.424Z" fill="#F9EA32"/>
<path d="M99.0372 52.9424C96.4917 55.0783 92.6834 54.7453 90.5481 52.2005C88.4128 49.6557 88.7461 45.8475 91.2916 43.7116C93.8361 41.5765 97.6442 41.9096 99.7796 44.4544C101.915 46.9992 101.582 50.8073 99.0372 52.9424ZM93.0059 45.7546C91.5865 46.9456 91.4011 49.0684 92.5909 50.4864C93.7814 51.9051 95.9041 52.0912 97.3235 50.9001C98.7418 49.71 98.9272 47.5872 97.7367 46.1685C96.5469 44.7506 94.4242 44.5645 93.0059 45.7546Z" fill="#F9EA32"/>
<path d="M92.972 59.794L73.8628 75.8285C73.5431 76.0968 73.0664 76.0555 72.7977 75.7353L60.8541 61.5014C60.5861 61.182 60.6275 60.7047 60.9473 60.4364L80.0565 44.4018C80.3762 44.1335 80.8535 44.1756 81.1216 44.495L93.0652 58.7289C93.3339 59.0491 93.2918 59.5257 92.972 59.794Z" fill="#363A44"/>
<path d="M60.1579 57.7243C59.9026 57.9385 59.818 58.294 59.9485 58.601L60.5134 59.9193L60.4202 60.9844L72.7977 75.7353C73.0664 76.0555 73.5431 76.0968 73.8628 75.8285L77.3968 72.8631C77.5571 72.7286 77.5772 72.4911 77.4435 72.3318L76.7339 71.4861C76.5565 71.2747 76.2772 71.1761 76.0064 71.231L73.138 71.8077C72.8673 71.8626 72.588 71.7641 72.4106 71.5526L71.7016 70.7077L72.9865 69.6295L72.1682 68.6543L74.1538 66.9882L74.9708 67.9619L76.1392 66.9814L77.8285 68.9946C78.0965 69.314 78.5739 69.356 78.8935 69.0878L79.8332 68.2993L78.9571 67.2552L83.6443 63.3221L84.5204 64.3663L85.4601 63.5777C85.7798 63.3095 85.8214 62.8321 85.5533 62.5127L83.8641 60.4995L85.0325 59.5191L84.2155 58.5454L86.2011 56.8793L87.0181 57.853L88.303 56.7748L89.0114 57.619C89.1888 57.8304 89.2373 58.1226 89.1362 58.3797L88.0715 61.1059C87.9704 61.363 88.019 61.6552 88.1964 61.8666L88.906 62.7123C89.0404 62.8724 89.2781 62.8923 89.4374 62.7586L92.9714 59.7932C93.2911 59.5249 93.3326 59.0476 93.0646 58.7281L80.6877 43.9779L79.6226 43.8848L78.4225 43.0995C78.1428 42.9177 77.778 42.9393 77.5227 43.1535L60.1579 57.7243Z" fill="#DBDDDB"/>
<path d="M66.6702 67.144C66.1318 67.0188 65.586 66.8932 65.0257 66.6963C64.4641 66.5083 63.905 66.1903 63.4597 65.8277L63.4467 65.8164C63.2524 65.6596 63.223 65.3736 63.3814 65.1806C63.5278 65.0003 63.7854 64.963 63.9763 65.0848C64.8248 65.6313 65.7927 65.7186 66.8822 65.8265C67.2491 65.8593 67.5207 66.1849 67.4876 66.552C67.4545 66.9192 67.1291 67.191 66.7634 67.1597C66.7353 67.1573 66.6989 67.1512 66.6721 67.1463L66.6702 67.144Z" fill="#DBDDDB"/>
<path d="M84.3338 51.1828C84.4178 50.0902 84.4989 49.1227 84.108 48.1922C84.0116 47.9612 84.1202 47.6964 84.3512 47.6005C84.5651 47.511 84.8092 47.5987 84.9209 47.7961L84.9294 47.8124C85.2075 48.314 85.4252 48.9198 85.5129 49.5055C85.6094 50.0915 85.6384 50.6507 85.6682 51.2027C85.6882 51.571 85.4061 51.886 85.0373 51.907C84.6688 51.9264 84.3542 51.6447 84.3334 51.2757C84.3309 51.2478 84.3313 51.211 84.3338 51.1828Z" fill="#DBDDDB"/>
<path d="M148.687 132.69C148.832 132.863 148.937 133.032 149.001 133.2C149.065 133.367 149.091 133.529 149.08 133.688C149.068 133.846 149.019 133.999 148.932 134.146C148.846 134.293 148.724 134.432 148.568 134.563L148.056 134.992L146.343 132.951L146.911 132.474C147.054 132.354 147.201 132.268 147.353 132.214C147.505 132.16 147.655 132.14 147.807 132.157C147.959 132.173 148.109 132.225 148.258 132.312C148.407 132.4 148.55 132.526 148.687 132.69ZM148.42 132.93C148.305 132.793 148.192 132.689 148.077 132.615C147.964 132.543 147.851 132.498 147.738 132.482C147.625 132.468 147.513 132.48 147.402 132.521C147.29 132.562 147.179 132.628 147.07 132.72L146.79 132.955L148.129 134.551L148.355 134.361C148.601 134.155 148.729 133.931 148.74 133.691C148.751 133.451 148.644 133.197 148.42 132.93Z" fill="white"/>
<path d="M151.919 131.751L150.86 132.64L149.147 130.598L150.206 129.709L150.398 129.939L149.598 130.61L150.128 131.241L150.875 130.614L151.065 130.841L150.318 131.468L150.928 132.194L151.727 131.523L151.919 131.751Z" fill="white"/>
<path d="M68.8525 90.6927L67.1395 88.6512L67.3999 88.4328L68.9181 90.2421L69.7181 89.5709L69.9128 89.8031L68.8525 90.6927Z" fill="white"/>
<path d="M72.0261 88.0298L70.9658 88.9194L69.2528 86.8779L70.3131 85.9882L70.5053 86.2173L69.7054 86.8885L70.235 87.5197L70.9821 86.8929L71.1717 87.1188L70.4246 87.7457L71.034 88.4719L71.8339 87.8007L72.0261 88.0298Z" fill="white"/>
<path d="M73.8422 84.7332C73.9868 84.9055 74.0905 85.0757 74.1549 85.2436C74.2196 85.4099 74.2455 85.5722 74.2339 85.7307C74.2224 85.8892 74.174 86.0421 74.0862 86.1888C73.9992 86.3362 73.8782 86.4757 73.7217 86.607L73.2109 87.0356L71.4979 84.9941L72.0665 84.517C72.2081 84.3981 72.3557 84.3108 72.5065 84.2574C72.6581 84.2033 72.8096 84.1832 72.9611 84.1997C73.1126 84.2161 73.2635 84.2684 73.4122 84.3564C73.5609 84.4444 73.7046 84.5692 73.8422 84.7332ZM73.574 84.9726C73.4596 84.8362 73.3452 84.7324 73.2324 84.6587C73.1179 84.5851 73.0049 84.5415 72.8921 84.5265C72.7792 84.5116 72.6675 84.5244 72.5554 84.5649C72.4432 84.6055 72.3336 84.6714 72.2249 84.7626L71.9436 84.9986L73.2825 86.5943L73.509 86.4043C73.7544 86.1984 73.8833 85.9753 73.8936 85.7343C73.9045 85.4941 73.7983 85.2399 73.574 84.9726Z" fill="white"/>
<path d="M55.7358 80.1296L55.4904 80.3355L54.4208 79.0608C54.3868 79.0202 54.3508 78.9773 54.3129 78.9321C54.2759 78.8861 54.239 78.8401 54.2014 78.7933C54.1655 78.7464 54.1305 78.7027 54.0968 78.6605C54.0641 78.6174 54.0342 78.5798 54.0088 78.5476C54.0064 78.5771 54.0046 78.6034 54.0036 78.6264C54.0013 78.6479 53.998 78.6703 53.9956 78.6919C53.9916 78.7135 53.989 78.7366 53.9853 78.7605C53.9822 78.7853 53.9775 78.8141 53.9727 78.8468L53.9066 79.1895L53.629 79.13L53.8133 78.2639L54.0228 78.0881L55.7358 80.1296Z" fill="white"/>
<path d="M62.3221 87.136L61.0483 88.2048L60.8658 87.9873L60.9078 87.0448C60.9146 86.9111 60.9196 86.7894 60.9224 86.6814C60.9246 86.5725 60.9207 86.4726 60.9084 86.3811C60.8972 86.2887 60.877 86.2038 60.8461 86.1266C60.817 86.0492 60.7723 85.9758 60.7132 85.9053C60.6669 85.8501 60.6184 85.8086 60.5671 85.7799C60.5158 85.7511 60.4643 85.7342 60.4099 85.7303C60.3559 85.7247 60.3024 85.7317 60.2503 85.7507C60.1982 85.7696 60.1468 85.7996 60.098 85.8406C60.0092 85.9151 59.9441 85.9997 59.9036 86.0951C59.8613 86.1906 59.8321 86.2935 59.8152 86.403L59.533 86.3564C59.5423 86.2925 59.5568 86.2268 59.5747 86.1609C59.5921 86.0967 59.6178 86.032 59.6487 85.9696C59.6805 85.9063 59.7183 85.8459 59.7622 85.7869C59.8068 85.7285 59.8595 85.6739 59.9203 85.6228C60.0091 85.5483 60.1009 85.4935 60.1932 85.4578C60.2873 85.422 60.3783 85.4069 60.4684 85.411C60.5581 85.4166 60.6446 85.4407 60.7287 85.4863C60.8132 85.5302 60.8914 85.5952 60.9621 85.6794C61.0283 85.7583 61.0784 85.8443 61.1148 85.9364C61.1504 86.0293 61.1756 86.1282 61.1895 86.234C61.2051 86.3397 61.2117 86.4529 61.2104 86.5729C61.2091 86.6928 61.2046 86.8192 61.1985 86.9536L61.1558 87.7009L61.1654 87.7124L62.128 86.9047L62.3221 87.136Z" fill="white"/>
<path d="M103.313 50.0765C103.37 50.144 103.411 50.2152 103.437 50.2887C103.462 50.363 103.472 50.4364 103.469 50.5096C103.464 50.5828 103.446 50.6559 103.414 50.7279C103.383 50.7999 103.338 50.8685 103.282 50.9352L103.289 50.9436C103.471 50.8262 103.64 50.7737 103.796 50.786C103.953 50.7983 104.087 50.8719 104.201 51.0067C104.275 51.0955 104.33 51.1908 104.362 51.2902C104.393 51.3905 104.402 51.4933 104.386 51.598C104.37 51.7043 104.327 51.8117 104.258 51.9195C104.189 52.028 104.09 52.1371 103.962 52.245C103.861 52.3296 103.758 52.4016 103.655 52.4615C103.552 52.5208 103.443 52.5636 103.329 52.5876L103.13 52.3501C103.247 52.3252 103.362 52.2845 103.476 52.2295C103.59 52.173 103.69 52.1083 103.777 52.0356C103.863 51.9636 103.929 51.8924 103.975 51.8221C104.022 51.7503 104.051 51.6816 104.063 51.6128C104.075 51.544 104.069 51.4759 104.046 51.4103C104.023 51.3438 103.984 51.2796 103.932 51.2175C103.879 51.1539 103.822 51.1103 103.759 51.0861C103.697 51.061 103.63 51.0536 103.56 51.0621C103.489 51.0707 103.416 51.0962 103.338 51.1376C103.261 51.1791 103.181 51.2341 103.098 51.3036L102.913 51.4592L102.736 51.2478L102.921 51.0921C102.997 51.0286 103.057 50.964 103.099 50.8955C103.142 50.8286 103.169 50.7599 103.179 50.6928C103.191 50.6256 103.186 50.5592 103.167 50.4941C103.147 50.4299 103.113 50.3686 103.066 50.3127C103.025 50.2645 102.981 50.2275 102.932 50.2034C102.883 50.1793 102.833 50.1664 102.78 50.1663C102.726 50.1654 102.672 50.1757 102.618 50.1979C102.563 50.2201 102.511 50.2526 102.458 50.2969C102.358 50.3806 102.284 50.4688 102.234 50.5646C102.183 50.6589 102.146 50.7605 102.12 50.8688L101.845 50.8021C101.855 50.7437 101.873 50.6834 101.894 50.6221C101.917 50.56 101.945 50.4985 101.98 50.4366C102.016 50.374 102.058 50.3134 102.107 50.2534C102.155 50.1933 102.212 50.1361 102.277 50.0817C102.378 49.9971 102.478 49.9357 102.574 49.8965C102.671 49.8582 102.763 49.8407 102.853 49.8424C102.942 49.8449 103.025 49.8651 103.104 49.9062C103.182 49.9465 103.251 50.003 103.313 50.0765Z" fill="white"/>
<path d="M106.064 48.4396C106.146 48.5376 106.224 48.6383 106.295 48.744C106.367 48.8496 106.428 48.9565 106.477 49.0663C106.526 49.1753 106.562 49.2865 106.583 49.3991C106.606 49.5109 106.607 49.6235 106.588 49.7347C106.568 49.8467 106.526 49.9565 106.461 50.0656C106.395 50.1757 106.301 50.2821 106.177 50.3859C106.159 50.401 106.14 50.4161 106.117 50.4338C106.095 50.4506 106.072 50.4675 106.049 50.4819C106.025 50.4989 106.003 50.5141 105.98 50.5278C105.957 50.5423 105.935 50.5536 105.916 50.5624L105.733 50.3448C105.776 50.3286 105.82 50.3069 105.866 50.278C105.911 50.249 105.953 50.2186 105.993 50.1851C106.119 50.0796 106.205 49.9711 106.248 49.8589C106.292 49.7475 106.308 49.6341 106.292 49.5197C106.277 49.4044 106.237 49.2886 106.174 49.1723C106.11 49.056 106.034 48.941 105.946 48.8257L105.928 48.8408C105.937 48.8904 105.941 48.9402 105.94 48.9911C105.938 49.0412 105.928 49.0924 105.91 49.144C105.893 49.1947 105.868 49.2451 105.833 49.295C105.798 49.3442 105.753 49.3921 105.698 49.4382C105.609 49.5127 105.518 49.5658 105.424 49.5993C105.329 49.632 105.234 49.6424 105.14 49.6314C105.044 49.6205 104.951 49.5888 104.86 49.5347C104.767 49.4808 104.68 49.4043 104.598 49.3055C104.508 49.199 104.442 49.0924 104.4 48.9814C104.358 48.8722 104.339 48.765 104.343 48.6617C104.347 48.5567 104.373 48.4571 104.424 48.3613C104.474 48.2646 104.547 48.1773 104.642 48.097C104.736 48.0183 104.839 47.963 104.95 47.9313C105.062 47.9002 105.179 47.896 105.3 47.9209C105.423 47.945 105.548 47.9991 105.678 48.0831C105.807 48.1681 105.935 48.2864 106.064 48.4396ZM104.825 48.3105C104.769 48.3574 104.726 48.4093 104.696 48.4662C104.665 48.5231 104.65 48.5857 104.648 48.6532C104.648 48.7198 104.664 48.7907 104.696 48.8654C104.727 48.9395 104.776 49.0176 104.844 49.0988C104.899 49.1639 104.955 49.2155 105.015 49.2541C105.073 49.2929 105.133 49.3173 105.194 49.3281C105.256 49.3382 105.317 49.3348 105.379 49.3154C105.443 49.296 105.504 49.2616 105.566 49.2097C105.63 49.1561 105.677 49.0969 105.71 49.0328C105.743 48.9671 105.762 48.9027 105.769 48.8365C105.776 48.7719 105.771 48.7087 105.755 48.6466C105.737 48.5847 105.709 48.5319 105.672 48.4875C105.619 48.4247 105.558 48.3702 105.489 48.3223C105.419 48.2753 105.347 48.2403 105.272 48.219C105.197 48.1984 105.12 48.1938 105.043 48.2058C104.966 48.2187 104.894 48.2528 104.825 48.3105Z" fill="white"/>
<path d="M84.8675 73.7705L85.9782 75.0942C86.0676 75.2007 86.1356 75.3121 86.1811 75.4292C86.2267 75.5463 86.247 75.6637 86.2418 75.783C86.2358 75.9016 86.2024 76.0196 86.1408 76.1366C86.0792 76.2536 85.9848 76.3641 85.8582 76.4704C85.7384 76.5708 85.6189 76.6411 85.497 76.6821C85.376 76.7222 85.2568 76.7361 85.1396 76.7222C85.0219 76.7074 84.9088 76.6678 84.7991 76.6019C84.6904 76.5351 84.5876 76.4452 84.4925 76.3318L83.3888 75.0165L83.6502 74.7972L84.7654 76.1263C84.9024 76.2894 85.0483 76.3823 85.2036 76.4034C85.3587 76.4261 85.5193 76.3683 85.6819 76.2319C85.7647 76.1624 85.8245 76.09 85.8632 76.0145C85.9025 75.9397 85.9211 75.8627 85.9205 75.785C85.9204 75.708 85.9037 75.6293 85.8689 75.5515C85.8346 75.4719 85.7861 75.3939 85.7234 75.3172L84.6082 73.9881L84.8675 73.7705Z" fill="white"/>
<path d="M88.593 73.1976C88.6688 73.288 88.721 73.3826 88.7489 73.4806C88.7757 73.5795 88.7806 73.6785 88.7629 73.7769C88.7449 73.8769 88.7029 73.9748 88.6389 74.0728C88.5744 74.1701 88.4895 74.2634 88.3818 74.3538C88.2791 74.44 88.1753 74.5128 88.072 74.572C87.9681 74.6305 87.8734 74.6695 87.7862 74.6891L87.5773 74.4402C87.622 74.4287 87.6702 74.4132 87.7223 74.3942C87.7754 74.3745 87.8286 74.3507 87.882 74.3254C87.9366 74.2993 87.9895 74.2692 88.0432 74.2359C88.0975 74.2034 88.147 74.1671 88.1928 74.1286C88.3424 74.0031 88.4291 73.8834 88.4539 73.7672C88.4779 73.6518 88.4469 73.5421 88.3595 73.4379C88.317 73.3874 88.2734 73.3495 88.228 73.3237C88.1842 73.2978 88.1313 73.2835 88.071 73.2805C88.0108 73.2775 87.9398 73.2861 87.8585 73.3047C87.7776 73.3218 87.6794 73.3506 87.5637 73.389C87.4533 73.4255 87.3519 73.4505 87.2583 73.4625C87.1643 73.4761 87.0778 73.4743 86.9974 73.4595C86.918 73.4438 86.8418 73.4138 86.7708 73.3676C86.7004 73.3223 86.6319 73.2609 86.5664 73.1828C86.4976 73.1008 86.4515 73.0155 86.4274 72.9261C86.4034 72.8366 86.3996 72.7471 86.4169 72.6582C86.4334 72.5685 86.47 72.4805 86.5255 72.3947C86.5803 72.3082 86.6535 72.2272 86.7443 72.1511C86.855 72.0582 86.9637 71.9852 87.0689 71.9322C87.1757 71.8792 87.2763 71.8391 87.3728 71.8143L87.4616 72.1105C87.3782 72.1348 87.2904 72.168 87.197 72.2124C87.1034 72.257 87.0152 72.314 86.9335 72.3826C86.8197 72.4781 86.7545 72.5785 86.7353 72.6833C86.7172 72.7873 86.7451 72.8853 86.8203 72.975C86.8646 73.0278 86.9102 73.0679 86.957 73.0953C87.0031 73.1219 87.056 73.1362 87.1142 73.1409C87.1735 73.1446 87.2408 73.1378 87.3178 73.1201C87.3948 73.1025 87.485 73.0764 87.5885 73.0418C87.701 73.0035 87.8037 72.9761 87.8978 72.9585C87.9912 72.9402 88.0791 72.9356 88.1586 72.9433C88.2394 72.9525 88.3145 72.977 88.3859 73.0176C88.4573 73.0582 88.5261 73.1179 88.593 73.1976Z" fill="white"/>
<path d="M88.4764 70.7473L89.0329 70.2803C89.1527 70.1799 89.2651 70.1012 89.3713 70.0434C89.4769 69.9848 89.5771 69.9504 89.672 69.9399C89.7676 69.9302 89.8578 69.9446 89.9433 69.9838C90.0295 70.0237 90.112 70.0916 90.1923 70.1873C90.2412 70.2455 90.2772 70.3067 90.3017 70.3723C90.3261 70.438 90.3375 70.5041 90.3341 70.571C90.3323 70.6377 90.3164 70.7059 90.2867 70.7739C90.2571 70.8418 90.2134 70.9072 90.1566 70.9692L90.1689 70.9837C90.2423 70.9417 90.316 70.906 90.3899 70.8805C90.4641 70.8535 90.5374 70.8416 90.6095 70.8424C90.6828 70.8449 90.7543 70.8632 90.8252 70.899C90.8971 70.934 90.9662 70.9922 91.0331 71.0718C91.1108 71.1645 91.166 71.2606 91.1967 71.3601C91.2279 71.4579 91.2361 71.5568 91.2217 71.6551C91.2063 71.7542 91.1702 71.851 91.1099 71.9473C91.0513 72.0435 90.9694 72.1343 90.8667 72.2205L90.1895 72.7888L88.4764 70.7473ZM89.4621 71.3954L89.8032 71.1091C89.881 71.0438 89.941 70.9817 89.9823 70.9236C90.023 70.8646 90.0492 70.8087 90.059 70.7535C90.0687 70.6984 90.0627 70.6446 90.043 70.5907C90.0223 70.5376 89.9887 70.4835 89.9425 70.4283C89.8493 70.3172 89.7468 70.2661 89.6345 70.2781C89.5216 70.2893 89.388 70.361 89.2333 70.4908L88.9221 70.7519L89.4621 71.3954ZM89.6446 71.6129L90.2636 72.3506L90.6357 72.0384C90.7174 71.9698 90.7786 71.9028 90.818 71.8384C90.8578 71.7724 90.8798 71.7095 90.8871 71.6473C90.8927 71.5852 90.8826 71.5245 90.8583 71.4652C90.8335 71.4051 90.7974 71.3479 90.7492 71.2905C90.7061 71.2391 90.6587 71.1967 90.606 71.1665C90.5544 71.1354 90.498 71.1188 90.4367 71.1166C90.3755 71.1145 90.3087 71.1301 90.236 71.161C90.1651 71.1919 90.0855 71.243 89.9997 71.315L89.6446 71.6129Z" fill="white"/>
<path d="M107.148 107.172L98.4664 114.457L103.352 120.279L112.033 112.994L107.148 107.172Z" fill="#2B2D2F"/>
<path d="M108.642 73.1283L99.2448 81.0132L105.33 88.2654L114.727 80.3805L108.642 73.1283Z" fill="#2B2D2F"/>
<path d="M105.637 54.1967L101.245 57.8821L107.33 65.1335L111.722 61.4481L105.637 54.1967Z" fill="#2B2D2F"/>
<path d="M69.7747 79.9115L65.3827 83.5968L67.7822 86.4564L72.1742 82.7711L69.7747 79.9115Z" fill="#EBF6FD"/>
<path d="M83.6764 95.6992L91.2348 89.357C91.5412 89.0999 92.1047 89.1492 92.3618 89.4556L101.104 99.8738C101.361 100.18 101.312 100.744 101.005 101.001L93.4468 107.343C93.1404 107.6 92.5769 107.551 92.3198 107.244L83.5778 96.8263C83.3207 96.5198 83.37 95.9563 83.6764 95.6992Z" fill="#CDCCCC"/>
<path d="M88.0553 93.2429C90.098 91.5289 93.0012 91.8773 94.6294 93.8176L97.0295 96.6781C98.7432 98.7203 98.3946 101.624 96.4539 103.252C94.4111 104.966 91.508 104.618 89.8798 102.677L87.4796 99.817C85.7493 97.9623 86.0125 94.957 88.0553 93.2429Z" fill="white"/>
<path d="M83.5782 96.8263L84.5205 97.9493C84.9492 98.4602 85.8192 98.2524 85.8852 97.5013L86.0657 95.4348C86.1317 94.6836 85.3111 94.3279 84.8003 94.7564L83.6768 95.6992C83.3704 95.9563 83.3211 96.5198 83.5782 96.8263Z" fill="white"/>
<path d="M91.2351 89.3568L90.1115 90.2996C89.6009 90.728 89.8087 91.598 90.5598 91.6635L92.6263 91.8445C93.3775 91.91 93.7332 91.0893 93.3044 90.5784L92.3621 89.4554C92.0029 89.2346 91.5415 89.0997 91.2351 89.3568Z" fill="white"/>
<path d="M101.002 99.9593L100.059 98.8355C99.6304 98.3245 98.7604 98.5323 98.695 99.2843L98.616 101.264C98.5507 102.016 99.3714 102.372 99.882 101.943L101.006 101.001C101.226 100.641 101.259 100.266 101.002 99.9593Z" fill="white"/>
<path d="M93.3609 107.24L94.4844 106.298C94.9952 105.869 94.7874 104.999 94.0361 104.934L91.9697 104.753C91.2185 104.687 90.8627 105.508 91.2915 106.019L92.2338 107.142C92.5771 107.551 93.0545 107.498 93.3609 107.24Z" fill="white"/>
<path d="M116.768 77.6782L111.626 71.5498C111.369 71.2434 111.418 70.6799 111.725 70.4228L116.321 66.566C116.627 66.3089 117.191 66.3582 117.448 66.6646L122.59 72.793C122.848 73.0994 122.798 73.6629 122.492 73.9201L117.896 77.7768C117.402 78.0177 117.026 77.9846 116.768 77.6782Z" fill="#2B2D2F"/>
<path d="M68.7516 84.5505C69.1465 84.2192 69.1979 83.6304 68.8669 83.2359C68.5352 82.8406 67.947 82.7898 67.5522 83.1211C67.1573 83.4525 67.1052 84.0405 67.4369 84.4358C67.7679 84.8303 68.3568 84.8819 68.7516 84.5505Z" fill="#56B039"/>
<path d="M117.581 87.3939L111.759 92.279L115.444 96.6708L121.266 91.7856L117.581 87.3939Z" fill="#DBDDDB"/>
<path d="M99.0322 64.5439L93.2103 69.4291L96.896 73.8216L102.718 68.9364L99.0322 64.5439Z" fill="#DBDDDB"/>
<path d="M98.3175 65.1437L93.9256 68.829L97.6113 73.2215L102.003 69.5362L98.3175 65.1437Z" fill="#958863"/>
<path d="M116.866 87.9937L112.474 91.6789L116.159 96.0707L120.551 92.3854L116.866 87.9937Z" fill="#958863"/>
<path d="M122.038 92.7007L116.216 97.5859L119.901 101.978L125.723 97.0932L122.038 92.7007Z" fill="#DBDDDB"/>
<path d="M121.323 93.3004L116.931 96.9857L120.617 101.378L125.009 97.6929L121.323 93.3004Z" fill="#958863"/>
<path d="M76.2896 92.4972C76.9666 91.9292 77.0551 90.9203 76.4868 90.2431C75.9193 89.5667 74.9097 89.4779 74.2327 90.0459C73.5558 90.6139 73.4679 91.6236 74.0355 92.3C74.6037 92.9772 75.6128 93.0652 76.2896 92.4972Z" fill="#9A916C"/>
<path d="M193.177 167.079L162.842 192.533C162.535 192.791 161.972 192.741 161.715 192.435L138.403 164.653C138.146 164.347 138.195 163.783 138.502 163.526L168.837 138.072C169.143 137.814 169.707 137.864 169.964 138.17L193.276 165.952C193.619 166.361 193.484 166.822 193.177 167.079Z" fill="#DBDDDB"/>
<path d="M137.965 87.9947L133.573 91.68L135.459 93.9276L139.851 90.2423L137.965 87.9947Z" fill="#2B2D2F"/>
<path d="M126.548 87.236L125.118 88.4358L127.518 91.2962L128.948 90.0964L126.548 87.236Z" fill="#DBDDDB"/>
<path d="M126.806 87.5431L125.376 88.743L127.176 90.8879L128.606 89.6881L126.806 87.5431Z" fill="#349CD7"/>
<path d="M134.424 95.6737L132.994 96.8736L135.393 99.7332L136.823 98.5333L134.424 95.6737Z" fill="#DBDDDB"/>
<path d="M134.766 96.082L133.336 97.2819L135.136 99.4268L136.566 98.2269L134.766 96.082Z" fill="#9A916C"/>
<path d="M125.507 81.0624L121.728 84.2335L123.614 86.4811L127.393 83.31L125.507 81.0624Z" fill="#DBDDDB"/>
<path d="M124.997 81.4911L122.137 83.8908L124.023 86.1384L126.883 83.7386L124.997 81.4911Z" fill="#349CD7"/>
<path d="M125.134 104.164L124.011 105.107L125.811 107.252L126.934 106.309L125.134 104.164Z" fill="#DBDDDB"/>
<path d="M125.392 104.471L124.268 105.414L125.468 106.844L126.591 105.901L125.392 104.471Z" fill="#2B2D2F"/>
<path d="M141.352 96.6023L139.207 98.4021L140.15 99.5259L142.295 97.7261L141.352 96.6023Z" fill="#DBDDDB"/>
<path d="M140.943 96.9455L139.513 98.1454L140.456 99.2692L141.886 98.0693L140.943 96.9455Z" fill="#2B2D2F"/>
<path d="M131.001 82.1351L128.856 83.9349L129.799 85.0587L131.944 83.2588L131.001 82.1351Z" fill="#DBDDDB"/>
<path d="M130.695 82.3923L129.265 83.5921L130.208 84.7159L131.638 83.5161L130.695 82.3923Z" fill="#2B2D2F"/>
<path d="M123.128 105.847L122.005 106.79L123.805 108.935L124.928 107.992L123.128 105.847Z" fill="#DBDDDB"/>
<path d="M123.386 106.154L122.263 107.097L123.462 108.527L124.586 107.584L123.386 106.154Z" fill="#2B2D2F"/>
<path d="M84.1307 81.5945L81.9857 83.3943L82.9287 84.5181L85.0736 82.7183L84.1307 81.5945Z" fill="#DBDDDB"/>
<path d="M83.8248 81.8511L82.3949 83.051L83.3379 84.1747L84.7678 82.9749L83.8248 81.8511Z" fill="#2B2D2F"/>
<path d="M83.8833 78.3128L81.7383 80.1126L82.6807 81.2357L84.8256 79.4359L83.8833 78.3128Z" fill="#DBDDDB"/>
<path d="M83.475 78.6554L82.045 79.8552L82.9873 80.9783L84.4173 79.7784L83.475 78.6554Z" fill="#2B2D2F"/>
<path d="M121.021 107.615L119.897 108.558L121.697 110.703L122.821 109.76L121.021 107.615Z" fill="#DBDDDB"/>
<path d="M121.279 107.923L120.156 108.865L121.355 110.295L122.478 109.352L121.279 107.923Z" fill="#9A916C"/>
<path d="M118.914 109.384L117.79 110.327L119.59 112.471L120.713 111.529L118.914 109.384Z" fill="#DBDDDB"/>
<path d="M119.172 109.691L118.048 110.634L119.248 112.063L120.371 111.12L119.172 109.691Z" fill="#9A916C"/>
<path d="M105.234 106.537L103.089 108.337L104.032 109.46L106.177 107.66L105.234 106.537Z" fill="#DBDDDB"/>
<path d="M104.825 106.88L103.395 108.08L104.337 109.203L105.767 108.003L104.825 106.88Z" fill="#9A916C"/>
<path d="M146.179 137.532L145.055 138.475L146.855 140.619L147.978 139.677L146.179 137.532Z" fill="#DBDDDB"/>
<path d="M146.521 137.94L145.398 138.883L146.598 140.313L147.721 139.37L146.521 137.94Z" fill="#9A916C"/>
<path d="M129.963 99.4162L128.534 100.616L130.933 103.476L132.363 102.276L129.963 99.4162Z" fill="#DBDDDB"/>
<path d="M130.306 99.8245L128.876 101.024L130.676 103.169L132.106 101.969L130.306 99.8245Z" fill="#9A916C"/>
<path d="M127.187 101.746L125.757 102.945L128.157 105.805L129.587 104.605L127.187 101.746Z" fill="#DBDDDB"/>
<path d="M127.53 102.154L126.1 103.354L127.9 105.499L129.33 104.299L127.53 102.154Z" fill="#9A916C"/>
<path d="M139.033 104.761L136.888 106.561L137.831 107.685L139.975 105.885L139.033 104.761Z" fill="#DBDDDB"/>
<path d="M138.726 105.018L137.296 106.218L138.239 107.342L139.669 106.142L138.726 105.018Z" fill="#9A916C"/>
<path d="M114.18 124.845L112.035 126.644L112.978 127.768L115.123 125.968L114.18 124.845Z" fill="#DBDDDB"/>
<path d="M113.874 125.102L112.444 126.302L113.387 127.425L114.817 126.226L113.874 125.102Z" fill="#9A916C"/>
<path d="M124.489 137.869L122.344 139.669L123.287 140.792L125.432 138.992L124.489 137.869Z" fill="#DBDDDB"/>
<path d="M147.932 117.126L147.805 118.587L150.594 118.831L150.722 117.37L147.932 117.126Z" fill="#DBDDDB"/>
<path d="M148.463 117.173L148.336 118.634L150.195 118.796L150.323 117.335L148.463 117.173Z" fill="#9A916C"/>
<path d="M148.607 106.794L147.177 107.994L149.577 110.855L151.007 109.655L148.607 106.794Z" fill="#DBDDDB"/>
<path d="M148.864 107.101L147.434 108.301L149.234 110.446L150.664 109.246L148.864 107.101Z" fill="#2B2D2F"/>
<path d="M148.607 106.794L147.177 107.994L149.577 110.855L151.007 109.655L148.607 106.794Z" fill="#DBDDDB"/>
<path d="M148.864 107.101L147.434 108.301L149.234 110.446L150.664 109.246L148.864 107.101Z" fill="#2B2D2F"/>
<path d="M111.902 122.157L109.042 124.557L110.242 125.987L113.102 123.587L111.902 122.157Z" fill="#DBDDDB"/>
<path d="M111.494 122.5L109.349 124.3L110.549 125.73L112.694 123.93L111.494 122.5Z" fill="#9A916C"/>
<path d="M110.118 119.929L107.973 121.729L108.916 122.852L111.061 121.053L110.118 119.929Z" fill="#DBDDDB"/>
<path d="M109.709 120.272L108.279 121.472L109.222 122.596L110.652 121.396L109.709 120.272Z" fill="#2B2D2F"/>
<path d="M91.5752 114.125L90.9909 113.429C90.8656 113.279 90.7666 113.139 90.6944 113.006C90.6212 112.875 90.5784 112.749 90.5657 112.63C90.5523 112.511 90.5705 112.399 90.6195 112.291C90.6701 112.183 90.7549 112.08 90.8745 111.979C90.9464 111.919 91.0238 111.874 91.1053 111.843C91.1874 111.813 91.2699 111.8 91.3538 111.803C91.4377 111.806 91.5226 111.826 91.6078 111.863C91.6924 111.899 91.7748 111.952 91.8523 112.024L91.8702 112.009C91.8167 111.917 91.7737 111.825 91.7404 111.733C91.7073 111.641 91.6918 111.549 91.6939 111.459C91.6954 111.367 91.7186 111.278 91.7633 111.189C91.8075 111.1 91.881 111.013 91.9807 110.93C92.0975 110.832 92.2166 110.763 92.3395 110.725C92.4628 110.686 92.5868 110.676 92.7095 110.694C92.8331 110.712 92.9543 110.759 93.0743 110.833C93.1937 110.907 93.3077 111.008 93.4164 111.137L94.1267 111.984L91.5752 114.125ZM92.3838 112.893L92.0265 112.467C91.9442 112.369 91.8681 112.294 91.7942 112.243C91.7213 112.19 91.6511 112.159 91.5814 112.147C91.5134 112.135 91.4461 112.142 91.3788 112.167C91.3121 112.193 91.2446 112.234 91.1758 112.292C91.0362 112.409 90.9734 112.539 90.9887 112.679C91.0024 112.818 91.0914 112.985 91.2533 113.178L91.5799 113.567L92.3838 112.893ZM92.6572 112.663L93.5788 111.89L93.1893 111.426C93.1031 111.323 93.0192 111.248 92.9374 111.199C92.856 111.148 92.7761 111.12 92.6988 111.113C92.6216 111.106 92.546 111.117 92.4717 111.148C92.3968 111.178 92.325 111.224 92.2541 111.284C92.1893 111.338 92.1372 111.398 92.0983 111.463C92.0596 111.528 92.039 111.599 92.0368 111.675C92.0346 111.751 92.0525 111.835 92.0913 111.924C92.1304 112.015 92.1956 112.113 92.2856 112.221L92.6572 112.663Z" fill="white"/>
<path d="M89.2349 108.754C89.4314 108.589 89.6309 108.462 89.8316 108.373C90.0331 108.285 90.2302 108.238 90.4244 108.235C90.6175 108.232 90.8037 108.271 90.9812 108.357C91.1608 108.442 91.3254 108.575 91.4771 108.756C91.6358 108.945 91.7432 109.136 91.7956 109.328C91.8508 109.519 91.8574 109.71 91.8199 109.898C91.7806 110.086 91.6985 110.27 91.5733 110.451C91.4483 110.63 91.2864 110.803 91.0889 110.969C90.8904 111.136 90.6922 111.264 90.495 111.355C90.2961 111.446 90.1013 111.494 89.9104 111.497C89.7196 111.501 89.5338 111.46 89.3549 111.372C89.1751 111.285 89.0054 111.146 88.8466 110.957C88.6949 110.776 88.5927 110.591 88.5411 110.402C88.488 110.213 88.481 110.025 88.5172 109.835C88.5535 109.645 88.6327 109.46 88.7544 109.277C88.8758 109.095 89.0364 108.92 89.2349 108.754ZM90.8039 110.624C90.9635 110.49 91.0943 110.354 91.1963 110.216C91.2979 110.08 91.3681 109.943 91.4041 109.805C91.4408 109.669 91.4428 109.531 91.4093 109.396C91.3759 109.261 91.304 109.127 91.1928 108.994C91.0809 108.861 90.9613 108.767 90.834 108.711C90.7068 108.654 90.5711 108.632 90.4303 108.645C90.2888 108.656 90.1422 108.702 89.9911 108.78C89.8389 108.858 89.6831 108.964 89.5235 109.098C89.3629 109.232 89.2315 109.367 89.1293 109.503C89.027 109.638 88.9572 109.774 88.9208 109.909C88.8851 110.044 88.8835 110.18 88.9163 110.315C88.9498 110.45 89.0216 110.584 89.1328 110.716C89.244 110.849 89.3644 110.944 89.4923 111.001C89.6202 111.058 89.7548 111.081 89.8953 111.07C90.0358 111.059 90.1827 111.016 90.3345 110.939C90.4869 110.863 90.6434 110.758 90.8039 110.624Z" fill="white"/>
<path d="M87.0082 106.1C87.2047 105.935 87.4048 105.809 87.6056 105.72C87.807 105.632 88.0041 105.585 88.1983 105.582C88.3908 105.578 88.5776 105.619 88.7551 105.705C88.9347 105.789 89.0986 105.922 89.2503 106.102C89.4098 106.292 89.5164 106.482 89.5695 106.675C89.6247 106.866 89.6313 107.057 89.5931 107.244C89.5539 107.432 89.4724 107.617 89.3472 107.798C89.2223 107.977 89.0603 108.151 88.8629 108.316C88.6644 108.483 88.4662 108.611 88.269 108.702C88.0701 108.794 87.8752 108.841 87.6844 108.844C87.4936 108.848 87.3077 108.807 87.1288 108.719C86.9484 108.632 86.7793 108.493 86.6205 108.304C86.4688 108.123 86.3667 107.938 86.3144 107.749C86.2619 107.56 86.2543 107.371 86.2912 107.182C86.3274 106.992 86.4066 106.807 86.5284 106.624C86.6497 106.443 86.8097 106.267 87.0082 106.1ZM88.5772 107.97C88.7368 107.836 88.8682 107.701 88.9702 107.563C89.0712 107.426 89.1413 107.289 89.1781 107.152C89.2147 107.016 89.2167 106.879 89.1832 106.743C89.1491 106.608 89.0773 106.473 88.9661 106.341C88.8549 106.208 88.7352 106.114 88.6073 106.057C88.4801 106.001 88.345 105.98 88.2036 105.991C88.0627 106.004 87.9161 106.05 87.765 106.127C87.6129 106.205 87.457 106.311 87.2974 106.445C87.1369 106.579 87.0055 106.715 86.9032 106.85C86.8009 106.985 86.7311 107.121 86.6948 107.256C86.659 107.392 86.6574 107.527 86.6903 107.662C86.7231 107.796 86.7949 107.93 86.9067 108.064C87.0179 108.196 87.1383 108.291 87.2656 108.347C87.3934 108.405 87.5287 108.428 87.6692 108.417C87.8097 108.406 87.956 108.362 88.1084 108.286C88.2608 108.211 88.4167 108.105 88.5772 107.97Z" fill="white"/>
<path d="M87.2764 103.82L87.5502 104.147L85.284 106.048L85.8966 106.778L85.6113 107.018L84.1143 105.233L84.3995 104.994L85.0102 105.722L87.2764 103.82Z" fill="white"/>
<path d="M84.5621 101.972C84.6747 101.877 84.7929 101.813 84.915 101.779C85.0389 101.744 85.1613 101.738 85.2855 101.76C85.4096 101.783 85.533 101.834 85.6549 101.915C85.7769 101.995 85.8937 102.102 86.0056 102.236C86.1149 102.366 86.2058 102.494 86.2793 102.625C86.3532 102.753 86.4017 102.872 86.4255 102.981L86.1153 103.241C86.1004 103.187 86.0815 103.126 86.057 103.06C86.0326 102.995 86.0035 102.928 85.9705 102.86C85.9376 102.793 85.9004 102.726 85.8598 102.659C85.8187 102.592 85.7731 102.53 85.7243 102.472C85.5681 102.285 85.4181 102.178 85.2737 102.147C85.1288 102.116 84.9917 102.156 84.8611 102.265C84.7982 102.318 84.7504 102.372 84.7193 102.428C84.6865 102.485 84.6681 102.55 84.6646 102.624C84.6617 102.7 84.6713 102.789 84.6942 102.891C84.7181 102.992 84.7534 103.115 84.7995 103.259C84.847 103.397 84.8773 103.524 84.8937 103.641C84.9085 103.758 84.9073 103.866 84.8883 103.967C84.8685 104.067 84.8316 104.161 84.7743 104.25C84.7185 104.338 84.6403 104.423 84.5426 104.505C84.4399 104.591 84.3337 104.649 84.222 104.68C84.1107 104.709 83.9985 104.713 83.8861 104.693C83.7747 104.671 83.6653 104.626 83.5569 104.558C83.449 104.488 83.3488 104.397 83.2537 104.284C83.1374 104.145 83.0463 104.01 82.9796 103.878C82.9124 103.745 82.8639 103.618 82.8322 103.498L83.2029 103.386C83.2326 103.491 83.2747 103.601 83.3301 103.718C83.3855 103.835 83.4571 103.945 83.5432 104.047C83.6621 104.189 83.7876 104.272 83.9183 104.294C84.0498 104.317 84.1713 104.281 84.283 104.187C84.3488 104.132 84.3986 104.076 84.4328 104.017C84.4659 103.96 84.4853 103.894 84.4901 103.82C84.4943 103.746 84.4862 103.662 84.4642 103.567C84.4432 103.471 84.4097 103.358 84.367 103.228C84.3202 103.087 84.2853 102.958 84.2616 102.841C84.2397 102.724 84.2336 102.615 84.2445 102.515C84.256 102.415 84.2868 102.32 84.3365 102.231C84.3861 102.143 84.4613 102.056 84.5621 101.972Z" fill="white"/>
<path d="M83.7036 99.5625L84.8156 100.888L82.2642 103.029L81.1521 101.703L81.4374 101.464L82.2762 102.464L83.0662 101.801L82.2833 100.868L82.5656 100.631L83.3485 101.564L84.2562 100.802L83.4173 99.8028L83.7036 99.5625Z" fill="white"/>
<path d="M83.2326 99.001L80.6812 101.142L80.4086 100.817L82.6708 98.919L81.8313 97.9185L82.1206 97.6758L83.2326 99.001Z" fill="white"/>
<path d="M172.357 132.774L150.04 151.501L144.768 145.219L167.086 126.492L172.357 132.774ZM150.064 151.218L172.075 132.749L167.062 126.774L145.051 145.243L150.064 151.218Z" fill="#DBDDDB"/>
<path d="M134.54 105.796L114.112 122.937L131.253 143.365L151.681 126.224L134.54 105.796Z" fill="#31322F"/>
<path d="M129.377 136.889L129.933 137.552L129.729 137.723L128.383 136.118L128.773 135.791C128.968 135.628 129.143 135.545 129.3 135.541C129.456 135.539 129.597 135.615 129.725 135.767C129.779 135.831 129.817 135.894 129.839 135.957C129.86 136.019 129.872 136.079 129.87 136.138C129.869 136.197 129.859 136.255 129.84 136.309C129.821 136.363 129.798 136.415 129.77 136.464L130.81 136.816L130.569 137.018L129.628 136.678L129.377 136.889ZM129.231 136.716L129.412 136.564C129.478 136.509 129.528 136.455 129.563 136.405C129.598 136.353 129.62 136.302 129.629 136.251C129.638 136.201 129.633 136.153 129.615 136.103C129.596 136.054 129.566 136.005 129.523 135.954C129.479 135.901 129.435 135.863 129.389 135.839C129.342 135.815 129.295 135.803 129.245 135.807C129.195 135.808 129.142 135.823 129.088 135.852C129.032 135.88 128.973 135.921 128.909 135.975L128.733 136.122L129.231 136.716Z" fill="#3E3F38"/>
<path d="M131.064 134.67C131.119 134.736 131.163 134.809 131.194 134.886C131.226 134.965 131.239 135.046 131.231 135.133C131.225 135.219 131.196 135.308 131.144 135.4C131.092 135.491 131.011 135.583 130.899 135.677L130.734 135.815L131.259 136.44L131.055 136.61L129.709 135.006L130.106 134.673C130.204 134.591 130.297 134.53 130.385 134.491C130.474 134.453 130.557 134.433 130.637 134.435C130.716 134.436 130.792 134.457 130.862 134.497C130.934 134.537 131.001 134.595 131.064 134.67ZM130.589 135.641L130.73 135.522C130.798 135.465 130.853 135.409 130.895 135.356C130.935 135.301 130.961 135.247 130.973 135.193C130.985 135.139 130.981 135.084 130.964 135.029C130.946 134.973 130.912 134.916 130.862 134.857C130.775 134.753 130.68 134.701 130.578 134.701C130.477 134.702 130.362 134.755 130.234 134.862L130.059 135.01L130.589 135.641Z" fill="#3E3F38"/>
<path d="M133.238 134.779L132.236 135.619L132.092 135.448L132.125 134.707C132.131 134.602 132.134 134.507 132.136 134.421C132.138 134.336 132.135 134.257 132.126 134.185C132.117 134.112 132.101 134.046 132.078 133.986C132.054 133.925 132.019 133.867 131.972 133.811C131.936 133.768 131.898 133.735 131.858 133.712C131.818 133.69 131.776 133.678 131.734 133.674C131.692 133.67 131.65 133.675 131.609 133.691C131.568 133.705 131.528 133.728 131.489 133.76C131.419 133.819 131.368 133.886 131.336 133.961C131.304 134.036 131.281 134.117 131.267 134.203L131.046 134.166C131.053 134.116 131.064 134.064 131.078 134.014C131.092 133.962 131.112 133.912 131.136 133.863C131.161 133.813 131.19 133.765 131.226 133.719C131.261 133.673 131.302 133.63 131.35 133.59C131.419 133.532 131.492 133.488 131.564 133.459C131.638 133.432 131.71 133.42 131.78 133.425C131.851 133.428 131.919 133.447 131.985 133.482C132.051 133.517 132.112 133.567 132.168 133.634C132.22 133.696 132.26 133.764 132.288 133.836C132.315 133.909 132.335 133.987 132.347 134.07C132.359 134.153 132.365 134.241 132.363 134.336C132.362 134.43 132.359 134.53 132.354 134.636L132.322 135.223L132.329 135.231L133.085 134.597L133.238 134.779Z" fill="#3E3F38"/>
<path d="M133.029 134.083L132.875 133.899L133.42 133.442L133.574 133.626L133.029 134.083Z" fill="#3E3F38"/>
<path d="M133.344 131.912C133.405 131.861 133.471 131.821 133.539 131.791C133.607 131.761 133.675 131.745 133.743 131.742C133.812 131.74 133.878 131.753 133.943 131.78C134.008 131.809 134.067 131.855 134.121 131.92C134.162 131.968 134.192 132.018 134.21 132.071C134.228 132.122 134.238 132.175 134.239 132.228C134.241 132.281 134.234 132.336 134.22 132.39C134.206 132.445 134.188 132.499 134.164 132.555C134.225 132.541 134.288 132.532 134.352 132.525C134.415 132.519 134.479 132.52 134.539 132.529C134.599 132.536 134.658 132.553 134.714 132.581C134.77 132.608 134.82 132.647 134.865 132.701C134.921 132.768 134.96 132.84 134.982 132.915C135.003 132.991 135.007 133.065 134.994 133.141C134.982 133.215 134.954 133.29 134.909 133.361C134.865 133.434 134.806 133.501 134.731 133.564C134.65 133.632 134.57 133.682 134.491 133.714C134.412 133.747 134.335 133.763 134.261 133.762C134.188 133.761 134.118 133.743 134.05 133.709C133.984 133.674 133.922 133.623 133.865 133.555C133.819 133.5 133.785 133.444 133.765 133.386C133.744 133.328 133.734 133.271 133.732 133.212C133.73 133.153 133.737 133.095 133.752 133.036C133.768 132.977 133.789 132.919 133.813 132.863C133.759 132.871 133.704 132.875 133.65 132.874C133.596 132.874 133.544 132.866 133.494 132.854C133.442 132.839 133.394 132.818 133.347 132.79C133.3 132.762 133.257 132.723 133.217 132.675C133.163 132.611 133.128 132.545 133.112 132.477C133.097 132.408 133.096 132.341 133.11 132.273C133.125 132.206 133.153 132.142 133.195 132.08C133.235 132.019 133.284 131.962 133.344 131.912ZM134.063 133.392C134.096 133.432 134.132 133.463 134.17 133.485C134.21 133.508 134.251 133.521 134.295 133.523C134.339 133.525 134.387 133.516 134.435 133.497C134.483 133.478 134.535 133.446 134.587 133.402C134.639 133.359 134.678 133.314 134.707 133.27C134.735 133.224 134.752 133.178 134.759 133.132C134.765 133.086 134.761 133.041 134.745 132.996C134.731 132.952 134.706 132.908 134.671 132.867C134.639 132.829 134.603 132.8 134.563 132.783C134.523 132.763 134.479 132.751 134.43 132.748C134.381 132.745 134.329 132.746 134.272 132.753C134.214 132.762 134.153 132.775 134.088 132.79L134.042 132.802C133.987 132.923 133.96 133.032 133.961 133.128C133.961 133.223 133.995 133.312 134.063 133.392ZM133.483 132.081C133.405 132.146 133.359 132.217 133.346 132.294C133.333 132.372 133.357 132.447 133.419 132.521C133.454 132.563 133.491 132.593 133.529 132.612C133.567 132.631 133.607 132.643 133.65 132.648C133.692 132.652 133.736 132.65 133.784 132.642C133.831 132.634 133.882 132.623 133.933 132.609C133.955 132.564 133.972 132.518 133.987 132.473C134.003 132.428 134.013 132.384 134.016 132.341C134.018 132.297 134.013 132.255 134 132.213C133.988 132.17 133.965 132.13 133.931 132.091C133.869 132.017 133.799 131.98 133.721 131.98C133.643 131.979 133.563 132.014 133.483 132.081Z" fill="#3E3F38"/>
<path d="M136.436 132.096L135.436 132.935L135.292 132.764L135.325 132.023C135.33 131.918 135.334 131.823 135.335 131.737C135.338 131.652 135.333 131.574 135.325 131.501C135.315 131.429 135.3 131.362 135.277 131.302C135.253 131.241 135.218 131.183 135.171 131.127C135.135 131.084 135.097 131.051 135.057 131.029C135.017 131.006 134.976 130.993 134.933 130.99C134.891 130.986 134.848 130.991 134.808 131.006C134.766 131.021 134.726 131.045 134.687 131.077C134.618 131.135 134.567 131.202 134.535 131.276C134.502 131.353 134.48 131.433 134.467 131.519L134.244 131.483C134.252 131.432 134.262 131.381 134.277 131.33C134.292 131.278 134.311 131.228 134.335 131.179C134.36 131.129 134.389 131.081 134.425 131.036C134.459 130.99 134.501 130.946 134.548 130.907C134.619 130.848 134.69 130.805 134.763 130.776C134.836 130.748 134.908 130.737 134.979 130.74C135.05 130.744 135.118 130.764 135.184 130.798C135.249 130.833 135.31 130.884 135.367 130.951C135.418 131.013 135.46 131.08 135.487 131.153C135.515 131.224 135.534 131.303 135.547 131.386C135.558 131.469 135.563 131.558 135.562 131.652C135.56 131.747 135.557 131.847 135.552 131.952L135.52 132.54L135.527 132.548L136.283 131.913L136.436 132.096Z" fill="#3E3F38"/>
<path d="M140.008 129.098L139.007 129.938L138.863 129.767L138.896 129.026C138.901 128.921 138.905 128.826 138.907 128.74C138.909 128.655 138.906 128.576 138.896 128.504C138.888 128.431 138.871 128.365 138.848 128.305C138.825 128.245 138.789 128.186 138.742 128.13C138.706 128.087 138.668 128.054 138.629 128.032C138.588 128.009 138.547 127.997 138.505 127.993C138.462 127.989 138.421 127.994 138.379 128.01C138.338 128.024 138.298 128.047 138.26 128.08C138.19 128.138 138.139 128.205 138.106 128.28C138.075 128.355 138.052 128.436 138.038 128.522L137.816 128.485C137.824 128.435 137.835 128.384 137.848 128.333C137.863 128.282 137.882 128.231 137.907 128.182C137.931 128.132 137.961 128.084 137.997 128.038C138.032 127.992 138.072 127.95 138.12 127.909C138.19 127.851 138.262 127.807 138.335 127.778C138.409 127.751 138.481 127.739 138.551 127.744C138.621 127.747 138.69 127.766 138.755 127.801C138.822 127.836 138.883 127.886 138.939 127.953C138.991 128.015 139.031 128.083 139.059 128.155C139.086 128.228 139.106 128.306 139.118 128.389C139.129 128.472 139.135 128.56 139.133 128.655C139.133 128.749 139.129 128.849 139.125 128.955L139.092 129.542L139.099 129.55L139.855 128.916L140.008 129.098Z" fill="#3E3F38"/>
<path d="M140.919 128.334L140.726 128.495L139.886 127.493C139.859 127.461 139.83 127.427 139.8 127.392C139.772 127.356 139.742 127.32 139.713 127.283C139.685 127.247 139.658 127.212 139.631 127.178C139.605 127.144 139.582 127.116 139.562 127.09C139.56 127.114 139.559 127.134 139.558 127.151C139.555 127.169 139.553 127.186 139.551 127.203C139.548 127.221 139.546 127.238 139.543 127.257C139.541 127.276 139.538 127.299 139.533 127.326L139.482 127.594L139.264 127.548L139.408 126.867L139.573 126.729L140.919 128.334Z" fill="#3E3F38"/>
<path d="M140.847 125.66L141.595 127.766L141.399 127.931L140.651 125.824L140.847 125.66Z" fill="#3E3F38"/>
<path d="M143.106 125.885L142.872 126.081L143.174 126.441L142.982 126.603L142.68 126.243L141.939 126.865L141.792 126.69L141.614 125.001L141.821 124.828L142.719 125.899L142.953 125.703L143.106 125.885ZM142.527 126.061L142.199 125.67C142.164 125.629 142.128 125.586 142.092 125.54C142.055 125.495 142.02 125.449 141.985 125.405C141.951 125.361 141.919 125.32 141.889 125.28C141.86 125.242 141.835 125.21 141.815 125.184L141.805 125.193C141.812 125.211 141.819 125.234 141.827 125.257C141.834 125.282 141.841 125.307 141.847 125.333C141.853 125.358 141.858 125.383 141.862 125.408C141.867 125.433 141.87 125.454 141.872 125.473L141.981 126.519L142.527 126.061Z" fill="#3E3F38"/>
<path d="M144.559 125.28L143.558 126.119L143.414 125.948L143.447 125.207C143.453 125.102 143.456 125.007 143.457 124.922C143.46 124.836 143.456 124.758 143.447 124.685C143.438 124.613 143.423 124.546 143.399 124.486C143.376 124.426 143.34 124.367 143.293 124.311C143.257 124.268 143.22 124.235 143.179 124.213C143.14 124.19 143.098 124.178 143.056 124.174C143.014 124.17 142.971 124.176 142.931 124.191C142.889 124.206 142.849 124.229 142.81 124.261C142.741 124.319 142.69 124.386 142.657 124.461C142.625 124.537 142.602 124.618 142.589 124.703L142.367 124.667C142.375 124.616 142.385 124.565 142.4 124.514C142.414 124.462 142.433 124.412 142.458 124.363C142.483 124.313 142.512 124.265 142.547 124.22C142.582 124.174 142.624 124.131 142.67 124.091C142.741 124.032 142.812 123.989 142.885 123.96C142.959 123.932 143.031 123.921 143.102 123.925C143.173 123.928 143.24 123.948 143.307 123.982C143.372 124.018 143.433 124.068 143.489 124.135C143.541 124.197 143.582 124.264 143.609 124.337C143.637 124.409 143.657 124.487 143.669 124.57C143.68 124.653 143.686 124.742 143.685 124.836C143.683 124.931 143.68 125.031 143.675 125.137L143.643 125.724L143.649 125.732L144.405 125.097L144.559 125.28Z" fill="#3E3F38"/>
<path d="M131.658 138.053C131.713 138.118 131.758 138.192 131.788 138.27C131.82 138.349 131.832 138.43 131.825 138.515C131.82 138.602 131.791 138.691 131.738 138.782C131.686 138.874 131.604 138.967 131.493 139.059L131.328 139.198L131.852 139.822L131.648 139.994L130.302 138.39L130.699 138.056C130.798 137.974 130.89 137.913 130.978 137.875C131.068 137.835 131.151 137.817 131.23 137.818C131.31 137.819 131.386 137.84 131.457 137.88C131.528 137.92 131.595 137.978 131.658 138.053ZM131.183 139.024L131.324 138.905C131.392 138.848 131.446 138.793 131.488 138.739C131.529 138.684 131.556 138.63 131.567 138.576C131.578 138.523 131.574 138.468 131.557 138.412C131.539 138.356 131.506 138.299 131.457 138.24C131.369 138.135 131.273 138.085 131.172 138.085C131.07 138.085 130.955 138.139 130.829 138.245L130.653 138.393L131.183 139.024Z" fill="#3E3F38"/>
<path d="M133.793 138.194L133.2 137.845L132.602 138.347L132.841 138.993L132.635 139.166L131.873 137.06L132.059 136.904L134.001 138.019L133.793 138.194ZM132.983 137.718L132.431 137.389C132.416 137.38 132.396 137.368 132.374 137.354C132.352 137.34 132.328 137.326 132.304 137.309C132.278 137.293 132.253 137.275 132.226 137.257C132.199 137.239 132.174 137.221 132.148 137.203C132.163 137.23 132.176 137.258 132.191 137.288C132.204 137.318 132.217 137.346 132.229 137.373C132.241 137.402 132.252 137.427 132.262 137.451C132.271 137.476 132.278 137.495 132.285 137.511L132.515 138.11L132.983 137.718Z" fill="#3E3F38"/>
<path d="M135.301 136.928L135.07 137.122L133.932 136.771L133.885 137.025L134.422 137.665L134.219 137.836L132.873 136.232L133.076 136.061L133.749 136.863L133.727 136.568L133.706 135.533L133.934 135.342L133.95 136.519L135.301 136.928Z" fill="#3E3F38"/>
<path d="M136.081 136.273L135.889 136.435L135.048 135.434C135.021 135.402 134.993 135.368 134.963 135.332C134.935 135.296 134.904 135.26 134.875 135.223C134.848 135.187 134.821 135.152 134.794 135.118C134.767 135.085 134.745 135.056 134.725 135.03C134.723 135.054 134.721 135.074 134.721 135.091C134.718 135.109 134.716 135.126 134.713 135.144C134.711 135.161 134.708 135.178 134.706 135.197C134.703 135.217 134.7 135.239 134.695 135.266L134.645 135.534L134.426 135.488L134.571 134.808L134.735 134.67L136.081 136.273Z" fill="#3E3F38"/>
<path d="M136.997 134.135C137.106 134.265 137.194 134.388 137.26 134.506C137.327 134.624 137.37 134.736 137.389 134.841C137.406 134.947 137.399 135.045 137.366 135.138C137.331 135.23 137.268 135.315 137.175 135.393C137.089 135.465 136.998 135.509 136.903 135.526C136.807 135.542 136.709 135.532 136.608 135.497C136.506 135.462 136.402 135.401 136.295 135.316C136.188 135.232 136.081 135.124 135.972 134.995C135.864 134.865 135.776 134.742 135.708 134.623C135.64 134.505 135.598 134.394 135.579 134.289C135.56 134.185 135.568 134.087 135.601 133.995C135.635 133.903 135.697 133.818 135.789 133.741C135.876 133.668 135.968 133.624 136.063 133.606C136.158 133.589 136.257 133.598 136.359 133.634C136.461 133.669 136.565 133.728 136.672 133.813C136.779 133.898 136.887 134.004 136.997 134.135ZM136.175 134.825C136.267 134.934 136.353 135.025 136.433 135.098C136.513 135.17 136.586 135.224 136.656 135.259C136.727 135.293 136.793 135.308 136.855 135.301C136.917 135.296 136.977 135.27 137.033 135.223C137.09 135.176 137.126 135.121 137.142 135.062C137.16 135.001 137.157 134.934 137.138 134.858C137.117 134.782 137.078 134.699 137.021 134.608C136.963 134.516 136.887 134.414 136.795 134.304C136.703 134.194 136.617 134.104 136.537 134.031C136.456 133.958 136.381 133.906 136.311 133.873C136.24 133.841 136.174 133.826 136.111 133.833C136.05 133.839 135.99 133.865 135.933 133.913C135.877 133.959 135.841 134.014 135.825 134.073C135.807 134.134 135.811 134.2 135.831 134.275C135.852 134.349 135.892 134.431 135.951 134.523C136.009 134.614 136.083 134.715 136.175 134.825Z" fill="#3E3F38"/>
<path d="M138.085 134.592L137.509 132.652L136.682 133.345L136.53 133.164L137.561 132.298L137.694 132.457L138.297 134.414L138.085 134.592Z" fill="#3E3F38"/>
<path d="M139.074 133.555C139.05 133.527 139.034 133.5 139.025 133.475C139.017 133.449 139.014 133.425 139.016 133.403C139.019 133.38 139.025 133.36 139.037 133.339C139.05 133.32 139.065 133.302 139.085 133.285C139.104 133.269 139.125 133.257 139.147 133.247C139.169 133.239 139.191 133.236 139.213 133.237C139.236 133.239 139.26 133.246 139.283 133.259C139.306 133.272 139.33 133.293 139.353 133.321C139.376 133.348 139.391 133.374 139.401 133.4C139.41 133.425 139.413 133.449 139.411 133.473C139.409 133.495 139.402 133.516 139.39 133.537C139.377 133.558 139.361 133.576 139.342 133.592C139.322 133.608 139.302 133.62 139.28 133.629C139.258 133.637 139.236 133.64 139.213 133.639C139.191 133.636 139.167 133.628 139.143 133.616C139.12 133.602 139.096 133.582 139.074 133.555Z" fill="#3E3F38"/>
<path d="M140.074 131.553C140.183 131.683 140.271 131.806 140.337 131.924C140.406 132.042 140.448 132.154 140.466 132.259C140.485 132.365 140.476 132.464 140.443 132.556C140.409 132.647 140.346 132.732 140.253 132.81C140.167 132.883 140.076 132.927 139.98 132.944C139.884 132.96 139.786 132.951 139.685 132.915C139.584 132.879 139.479 132.819 139.372 132.734C139.266 132.65 139.158 132.542 139.05 132.413C138.941 132.283 138.853 132.16 138.785 132.041C138.718 131.923 138.675 131.813 138.657 131.707C138.638 131.602 138.646 131.504 138.68 131.413C138.712 131.321 138.775 131.236 138.867 131.158C138.954 131.086 139.046 131.041 139.141 131.024C139.236 131.007 139.334 131.016 139.437 131.051C139.538 131.087 139.642 131.146 139.75 131.23C139.857 131.315 139.964 131.423 140.074 131.553ZM139.253 132.242C139.345 132.352 139.431 132.443 139.51 132.516C139.59 132.589 139.665 132.641 139.735 132.676C139.805 132.711 139.871 132.725 139.932 132.719C139.995 132.715 140.054 132.688 140.111 132.641C140.167 132.594 140.203 132.54 140.22 132.479C140.237 132.42 140.235 132.351 140.215 132.276C140.194 132.201 140.156 132.117 140.098 132.026C140.04 131.934 139.965 131.832 139.873 131.722C139.78 131.613 139.694 131.522 139.615 131.449C139.534 131.376 139.458 131.324 139.388 131.291C139.318 131.258 139.251 131.245 139.189 131.25C139.127 131.257 139.067 131.283 139.011 131.33C138.954 131.378 138.918 131.432 138.902 131.491C138.886 131.551 138.888 131.619 138.909 131.693C138.931 131.766 138.97 131.849 139.028 131.941C139.086 132.032 139.161 132.132 139.253 132.242Z" fill="#3E3F38"/>
<path d="M141.312 130.514C141.421 130.644 141.509 130.767 141.576 130.885C141.644 131.003 141.687 131.115 141.704 131.221C141.723 131.326 141.714 131.425 141.681 131.517C141.647 131.608 141.584 131.694 141.492 131.771C141.405 131.844 141.314 131.888 141.218 131.905C141.123 131.921 141.025 131.912 140.923 131.876C140.822 131.84 140.717 131.78 140.61 131.695C140.504 131.611 140.397 131.504 140.288 131.374C140.179 131.244 140.091 131.121 140.024 131.002C139.957 130.884 139.913 130.774 139.895 130.669C139.876 130.563 139.884 130.465 139.918 130.374C139.95 130.282 140.013 130.197 140.106 130.12C140.192 130.047 140.284 130.002 140.379 129.985C140.475 129.968 140.573 129.977 140.675 130.012C140.776 130.048 140.88 130.107 140.988 130.191C141.096 130.276 141.203 130.384 141.312 130.514ZM140.491 131.203C140.583 131.313 140.669 131.405 140.748 131.477C140.828 131.55 140.903 131.602 140.973 131.637C141.043 131.672 141.109 131.686 141.17 131.68C141.233 131.676 141.292 131.649 141.349 131.602C141.405 131.555 141.441 131.501 141.459 131.44C141.475 131.381 141.474 131.312 141.453 131.237C141.432 131.162 141.394 131.078 141.337 130.987C141.278 130.895 141.203 130.793 141.111 130.683C141.019 130.574 140.932 130.483 140.853 130.41C140.772 130.337 140.696 130.285 140.626 130.252C140.556 130.219 140.489 130.206 140.428 130.212C140.365 130.218 140.305 130.244 140.25 130.291C140.193 130.339 140.157 130.393 140.14 130.453C140.124 130.512 140.126 130.58 140.148 130.654C140.169 130.728 140.208 130.811 140.266 130.903C140.324 130.994 140.399 131.093 140.491 131.203Z" fill="#3E3F38"/>
<path d="M134.397 136.672L133.943 137.053L133.804 136.888L134.258 136.507L134.397 136.672Z" fill="#3E3F38"/>
<path d="M134.586 119.334L134.397 119.317C133.541 118.296 132.875 118.332 132.005 118.54C132.107 118.454 132.226 118.181 132.156 117.891C132.377 117.532 132.291 117.429 132.308 117.241C132.41 117.156 132.443 116.78 132.272 116.576C132.288 116.388 132.304 116.2 132.133 115.996C132.149 115.808 132.08 115.518 131.892 115.502C131.925 115.126 131.737 115.109 131.55 115.093C131.48 114.803 131.121 114.582 130.9 114.941C130.627 114.823 130.32 115.08 130.218 115.166C130.03 115.149 130.03 115.149 129.826 115.32C129.638 115.304 129.434 115.476 129.315 115.749C129.025 115.819 129.009 116.006 128.804 116.178C128.515 116.247 128.498 116.435 128.482 116.623C128.089 116.777 128.261 116.982 128.142 117.255L128.04 117.341C127.803 117.888 128.028 118.571 128.199 118.774C127.926 118.656 127.292 118.317 126.814 118.369L126.508 118.627C126.32 118.61 126.133 118.594 125.826 118.851C125.724 118.937 125.536 118.92 125.332 119.092C125.23 119.177 125.042 119.161 124.94 119.247C124.838 119.332 124.838 119.332 124.821 119.52C124.531 119.59 124.429 119.675 124.31 119.949C124.106 120.12 124.004 120.206 124.09 120.308C124.09 120.308 123.681 120.651 123.75 120.941C123.342 121.283 123.411 121.574 123.787 121.607C123.77 121.794 123.856 121.896 124.13 122.015C124.113 122.203 124.387 122.322 124.574 122.338C124.746 122.542 124.832 122.644 125.122 122.575C125.293 122.779 125.669 122.812 125.771 122.727C125.856 122.828 126.13 122.947 126.437 122.69C126.608 122.895 126.813 122.723 127.102 122.654C126.849 123.389 126.681 124.226 127.452 125.145L127.436 125.333C127.166 126.256 127.598 127.808 129.187 128.042C129.546 128.262 129.717 128.466 129.991 128.585C130.864 129.419 132.11 129.243 132.314 129.072C132.792 129.019 133.27 128.966 133.952 128.742C134.703 128.808 135.385 128.584 135.794 128.241C136.304 127.812 136.542 127.265 136.607 126.514C136.93 126.069 137.082 125.42 137.217 124.958C137.421 124.787 137.81 123.591 137.14 122.586C137.071 122.295 137.002 122.006 136.745 121.699C136.995 119.923 135.541 119.228 134.586 119.334ZM133.989 119.66C134.332 120.069 130.832 120.046 131.053 119.687C131.903 118.626 133.234 118.553 133.989 119.66ZM134.699 122.372C134.445 123.107 133.558 123.502 132.636 123.232C131.713 122.962 131.215 122.162 131.383 121.324C131.636 120.589 132.523 120.194 133.446 120.464C134.368 120.734 134.952 121.637 134.699 122.372ZM128.314 117.46C128.399 117.562 128.399 117.562 128.502 117.476C128.518 117.288 128.449 116.998 128.465 116.811C128.551 116.912 128.551 116.912 128.637 117.015C128.653 116.827 128.67 116.639 128.686 116.452C128.67 116.639 128.772 116.553 128.857 116.655C128.874 116.468 128.89 116.28 129.009 116.006C128.993 116.194 128.993 116.194 129.18 116.211C129.197 116.023 129.299 115.937 129.519 115.578C129.503 115.766 129.401 115.852 129.589 115.868C129.691 115.782 129.81 115.509 130.014 115.337C129.997 115.525 129.997 115.525 130.083 115.627C130.185 115.541 130.406 115.182 130.508 115.097L130.491 115.284C130.491 115.284 130.798 115.027 131.002 114.856C130.986 115.044 131.072 115.146 131.141 115.436C131.141 115.436 131.243 115.35 131.345 115.265C131.414 115.554 131.296 115.828 131.296 115.828C131.398 115.742 131.398 115.742 131.5 115.657C131.484 115.844 131.467 116.032 131.537 116.322C131.537 116.322 131.639 116.236 131.741 116.151C131.724 116.338 131.708 116.527 131.589 116.8C131.589 116.8 131.692 116.714 131.794 116.629C131.777 116.816 131.659 117.09 131.54 117.364C131.728 117.38 131.642 117.278 131.744 117.192C131.728 117.38 131.523 117.551 131.405 117.825C131.491 117.927 131.593 117.841 131.593 117.841C131.474 118.115 131.168 118.372 131.066 118.457C131.152 118.56 131.254 118.474 131.254 118.474C130.947 118.732 130.028 119.503 129.326 118.873C129.29 118.208 129.56 117.285 130.152 115.917C129.592 116.909 129.134 117.816 128.95 118.841C128.338 119.355 128.162 118.109 128.314 117.46ZM129.468 120.495C129.979 120.066 130.934 119.96 131.191 120.267C131.449 120.573 131.297 121.223 130.497 121.721C129.782 122.321 129.116 122.357 128.859 122.051C128.687 121.846 128.957 120.923 129.468 120.495ZM126.658 122.331C126.76 122.245 126.76 122.245 126.674 122.143C126.384 122.212 126.18 122.384 125.992 122.368C126.094 122.282 126.094 122.282 126.196 122.196C125.906 122.265 125.718 122.249 125.428 122.318C125.531 122.233 125.633 122.147 125.633 122.147C125.444 122.13 125.155 122.199 124.967 122.183C125.069 122.098 125.171 122.012 125.171 122.012C124.983 121.995 124.693 122.064 124.522 121.86C124.624 121.774 124.726 121.688 124.726 121.688C124.64 121.587 124.436 121.758 124.162 121.639C124.264 121.553 124.367 121.468 124.367 121.468C124.196 121.264 124.007 121.247 123.82 121.231C124.024 121.059 124.33 120.802 124.33 120.802L124.143 120.786C124.347 120.615 124.551 120.443 124.739 120.459C124.841 120.374 124.654 120.358 124.465 120.341C124.67 120.169 124.858 120.186 125.062 120.015C125.078 119.826 124.976 119.912 124.788 119.896C125.095 119.639 125.282 119.655 125.471 119.672C125.487 119.484 125.384 119.569 125.299 119.467C125.589 119.398 125.777 119.415 125.965 119.431C125.965 119.431 125.981 119.243 125.793 119.226C125.981 119.243 126.271 119.174 126.357 119.276C126.373 119.088 126.271 119.174 126.186 119.072C126.373 119.088 126.561 119.104 126.835 119.223C126.835 119.223 126.749 119.121 126.851 119.036C127.415 119.085 128.611 119.473 128.239 120.482C127.197 120.485 126.225 120.779 125.151 121.158C126.601 120.812 127.557 120.706 128.206 120.857C128.516 121.641 127.785 122.43 127.478 122.687C127.58 122.601 127.494 122.498 127.494 122.498C127.254 122.004 127.033 122.363 126.658 122.331ZM128.311 121.813C128.806 121.573 128.118 125.108 127.775 124.7C126.918 123.679 127.307 122.482 128.311 121.813ZM129.509 127.596C128.656 127.616 127.611 126.578 128.102 125.297C128.441 124.664 130.191 127.372 129.509 127.596ZM133.164 128.011C133.029 128.472 132.33 128.884 131.22 128.598C130.399 128.242 129.97 127.731 130.004 127.356C130.138 126.894 131.008 126.686 131.76 126.752C132.495 127.006 133.299 127.549 133.164 128.011ZM130.511 125.886C129.743 126.008 128.955 125.276 128.849 124.321C128.744 123.365 129.287 122.561 130.055 122.439C130.823 122.317 131.611 123.048 131.716 124.004C131.907 125.061 131.364 125.866 130.511 125.886ZM135.639 127.849C135.026 128.363 133.985 128.366 133.813 128.162C133.556 127.856 134.1 127.052 134.61 126.623C135.121 126.195 135.82 125.783 136.077 126.089C136.436 126.31 136.252 127.334 135.639 127.849ZM134.824 124.181C135.338 124.794 135.256 125.733 134.541 126.333C133.826 126.933 132.887 126.851 132.372 126.238C131.858 125.625 131.941 124.686 132.656 124.086C133.269 123.572 134.309 123.568 134.824 124.181ZM137.229 123.729C137.319 124.873 136.604 125.473 136.126 125.525C135.562 125.476 135.167 124.59 135.147 123.736C135.127 122.882 135.38 122.147 135.944 122.197C136.422 122.144 137.21 122.876 137.229 123.729ZM136.454 121.768C136.217 122.315 133.752 120.207 134.434 119.983C135.798 119.534 136.623 120.931 136.454 121.768Z" fill="#3E3F38"/>
<path d="M59.4697 87.4462C58.5364 86.3339 56.8716 86.1878 55.7593 87.1211L51.0977 91.0327L51.7546 91.8156C52.4359 91.244 53.4546 91.3317 54.0267 92.0134C54.5981 92.6945 54.5089 93.7144 53.8276 94.2861L54.4839 95.0682L59.1455 91.1566C60.2572 90.2226 60.403 88.5585 59.4697 87.4462ZM58.4783 90.3615C57.8042 90.9271 56.7955 90.8389 56.2298 90.1648C55.6642 89.4907 55.7524 88.4819 56.4265 87.9163C57.1007 87.3506 58.1094 87.4389 58.675 88.113C59.2407 88.7871 59.1524 89.7958 58.4783 90.3615Z" fill="#958863"/>
<path d="M63.9486 92.784L57.2697 98.3883L57.926 99.1704C58.6073 98.5988 59.6266 98.6872 60.1981 99.3682C60.7701 100.05 60.6796 101.068 59.9983 101.64L60.6553 102.423L67.3342 96.8188L63.9486 92.784ZM64.6497 97.7163C63.9756 98.2819 62.9669 98.1937 62.4012 97.5196C61.8355 96.8455 61.9238 95.8367 62.5979 95.2711C63.2721 94.7054 64.2808 94.7937 64.8464 95.4678C65.4121 96.1419 65.3238 97.1506 64.6497 97.7163Z" fill="#958863"/>
<path d="M71.8113 102.154C70.878 101.042 69.2139 100.897 68.1016 101.83L63.44 105.742L64.0963 106.524C64.7775 105.952 65.7969 106.04 66.3683 106.721C66.9398 107.402 66.8505 108.422 66.1693 108.994L66.8262 109.777L71.4878 105.865C72.5988 104.931 72.7447 103.267 71.8113 102.154ZM70.82 105.07C70.1458 105.635 69.1371 105.547 68.5715 104.873C68.0058 104.199 68.0941 103.19 68.7682 102.624C69.4423 102.059 70.451 102.147 71.0167 102.821C71.5823 103.495 71.4941 104.504 70.82 105.07Z" fill="#958863"/>
<path d="M77.9814 109.507C77.0481 108.395 75.3833 108.249 74.271 109.182L69.6094 113.094L70.2663 113.877C70.9476 113.305 71.9663 113.393 72.5384 114.075C73.1098 114.756 73.0206 115.776 72.3393 116.347L72.9956 117.13L77.6573 113.218C78.7689 112.284 78.9147 110.62 77.9814 109.507ZM76.99 112.423C76.3159 112.988 75.3072 112.9 74.7415 112.226C74.1759 111.552 74.2641 110.543 74.9383 109.978C75.6124 109.412 76.6211 109.5 77.1868 110.174C77.7524 110.848 77.6642 111.857 76.99 112.423Z" fill="#958863"/>
<path d="M84.1523 116.862C83.219 115.749 81.5542 115.603 80.4419 116.536L75.7803 120.448L76.4372 121.231C77.1185 120.659 78.1372 120.747 78.7093 121.429C79.2807 122.11 79.1915 123.13 78.5102 123.701L79.1665 124.484L83.8282 120.572C84.9398 119.638 85.0856 117.974 84.1523 116.862ZM83.1609 119.777C82.4868 120.342 81.4781 120.254 80.9124 119.58C80.3468 118.906 80.435 117.897 81.1092 117.332C81.7833 116.766 82.792 116.854 83.3577 117.528C83.9233 118.202 83.8351 119.211 83.1609 119.777Z" fill="#958863"/>
<path d="M90.3232 124.216C89.3899 123.103 87.7251 122.957 86.6129 123.89L81.9512 127.802L82.6081 128.585C83.2894 128.013 84.3081 128.101 84.8802 128.783C85.4516 129.464 85.3624 130.484 84.6811 131.055L85.3374 131.838L89.9991 127.926C91.1107 126.992 91.2565 125.328 90.3232 124.216ZM89.3318 127.131C88.6577 127.697 87.649 127.608 87.0833 126.934C86.5177 126.26 86.6059 125.251 87.2801 124.686C87.9542 124.12 88.9629 124.208 89.5286 124.882C90.0942 125.556 90.006 126.565 89.3318 127.131Z" fill="#958863"/>
<path d="M94.8005 129.552L88.1216 135.156L88.7779 135.938C89.4592 135.367 90.4785 135.455 91.05 136.136C91.622 136.818 91.5328 137.838 90.8515 138.409L91.5078 139.192L98.1867 133.587L94.8005 129.552ZM95.5016 134.484C94.8275 135.05 93.8188 134.961 93.2531 134.287C92.6874 133.613 92.7757 132.605 93.4498 132.039C94.1239 131.473 95.1327 131.561 95.6983 132.236C96.264 132.91 96.1757 133.918 95.5016 134.484Z" fill="#958863"/>
<path d="M102.664 138.923C101.731 137.811 100.066 137.665 98.9542 138.599L94.2925 142.51L94.9494 143.293C95.6307 142.721 96.6494 142.809 97.2209 143.49C97.7929 144.172 97.7037 145.192 97.0224 145.764L97.6787 146.546L102.34 142.634C103.452 141.7 103.598 140.036 102.664 138.923ZM101.673 141.838C100.998 142.404 99.9897 142.316 99.424 141.641C98.8583 140.967 98.9472 139.959 99.6214 139.394C100.295 138.828 101.304 138.916 101.869 139.59C102.436 140.265 102.347 141.272 101.673 141.838Z" fill="#958863"/>
<path d="M110.623 47.9603L115.285 44.0487L114.629 43.2666C113.947 43.8382 112.928 43.7498 112.357 43.0688C111.784 42.387 111.875 41.3685 112.556 40.7969L111.899 40.014L107.238 43.9255C106.125 44.8589 105.98 46.5237 106.914 47.636C107.847 48.7483 109.511 48.8936 110.623 47.9603ZM107.708 46.9692C107.143 46.2951 107.231 45.2863 107.905 44.7207C108.579 44.155 109.588 44.2433 110.153 44.9174C110.719 45.5915 110.631 46.6003 109.957 47.1659C109.283 47.7316 108.274 47.6433 107.708 46.9692Z" fill="#958863"/>
<path d="M114.778 57.0086L121.457 51.4043L120.8 50.6214C120.119 51.1931 119.1 51.1054 118.528 50.4236C117.957 49.7426 118.047 48.7233 118.728 48.1517L118.072 47.3696L111.393 52.9739L114.778 57.0086ZM113.88 54.324C113.314 53.6499 113.403 52.6412 114.077 52.0755C114.751 51.5099 115.759 51.5981 116.325 52.2722C116.891 52.9464 116.803 53.9551 116.128 54.5207C115.454 55.0864 114.446 54.9981 113.88 54.324Z" fill="#958863"/>
<path d="M122.965 62.6684L127.627 58.7568L126.97 57.9747C126.289 58.5463 125.27 58.4578 124.698 57.7768C124.127 57.0958 124.217 56.0766 124.898 55.505L124.242 54.7228L119.58 58.6344C118.468 59.5677 118.322 61.2318 119.255 62.3441C120.189 63.4564 121.853 63.6017 122.965 62.6684ZM120.05 61.6773C119.484 61.0031 119.573 59.9944 120.247 59.4288C120.921 58.8631 121.93 58.9514 122.495 59.6255C123.061 60.2996 122.973 61.3083 122.298 61.874C121.624 62.4396 120.616 62.3514 120.05 61.6773Z" fill="#958863"/>
<path d="M129.135 70.0216L133.797 66.1101L133.14 65.328C132.459 65.8996 131.44 65.8111 130.868 65.1301C130.296 64.4483 130.387 63.4299 131.068 62.8582L130.411 62.0753L125.749 65.9869C124.637 66.9202 124.492 68.5851 125.425 69.6974C126.359 70.8097 128.023 70.955 129.135 70.0216ZM126.22 69.0305C125.654 68.3564 125.743 67.3477 126.417 66.782C127.091 66.2164 128.099 66.3046 128.665 66.9788C129.231 67.6529 129.143 68.6616 128.468 69.2273C127.794 69.7929 126.786 69.7047 126.22 69.0305Z" fill="#958863"/>
<path d="M135.306 77.3756L139.967 73.4641L139.311 72.682C138.63 73.2536 137.611 73.1651 137.039 72.4841C136.467 71.8023 136.558 70.7839 137.239 70.2122L136.582 69.4293L131.92 73.3409C130.808 74.2742 130.663 75.9391 131.596 77.0514C132.529 78.1637 134.194 78.309 135.306 77.3756ZM132.391 76.3845C131.825 75.7104 131.913 74.7017 132.588 74.136C133.262 73.5704 134.27 73.6586 134.836 74.3328C135.402 75.0069 135.313 76.0156 134.639 76.5813C133.965 77.1469 132.956 77.0587 132.391 76.3845Z" fill="#958863"/>
<path d="M141.477 84.7296L146.138 80.8181L145.482 80.036C144.801 80.6076 143.782 80.5191 143.21 79.8381C142.638 79.1563 142.729 78.1379 143.41 77.5662L142.753 76.7833L138.091 80.6949C136.979 81.6282 136.834 83.2931 137.767 84.4054C138.7 85.5177 140.364 85.663 141.477 84.7296ZM138.562 83.7385C137.996 83.0644 138.084 82.0557 138.758 81.49C139.433 80.9244 140.441 81.0126 141.007 81.6868C141.573 82.3609 141.484 83.3696 140.81 83.9353C140.136 84.5009 139.127 84.4127 138.562 83.7385Z" fill="#958863"/>
<path d="M145.63 93.7764L152.309 88.1722L151.652 87.3893C150.971 87.9609 149.952 87.8732 149.38 87.1914C148.808 86.5104 148.898 85.4912 149.58 84.9195L148.923 84.1374L142.244 89.7417L145.63 93.7764ZM144.731 91.0918C144.166 90.4177 144.254 89.409 144.928 88.8433C145.602 88.2777 146.611 88.3659 147.177 89.0401C147.742 89.7142 147.654 90.7229 146.98 91.2886C146.306 91.8542 145.297 91.766 144.731 91.0918Z" fill="#958863"/>
<path d="M153.818 99.4377L158.48 95.5262L157.823 94.744C157.142 95.3157 156.123 95.2272 155.551 94.5462C154.979 93.8644 155.07 92.8459 155.751 92.2743L155.094 91.4914L150.433 95.403C149.32 96.3363 149.175 98.0011 150.108 99.1127C151.042 100.226 152.706 100.371 153.818 99.4377ZM150.903 98.4466C150.337 97.7725 150.426 96.7638 151.1 96.1981C151.774 95.6325 152.783 95.7207 153.348 96.3948C153.914 97.0689 153.826 98.0777 153.152 98.6433C152.477 99.209 151.469 99.1207 150.903 98.4466Z" fill="#958863"/>
<path d="M104.452 40.6055L109.113 36.6939L108.457 35.9118C107.776 36.4834 106.757 36.395 106.185 35.714C105.613 35.0322 105.704 34.0137 106.385 33.4421L105.728 32.6592L101.066 36.5707C99.954 37.5041 99.8088 39.1689 100.742 40.2812C101.675 41.3935 103.34 41.5388 104.452 40.6055ZM101.537 39.6144C100.971 38.9403 101.059 37.9315 101.734 37.3659C102.408 36.8002 103.416 36.8885 103.982 37.5626C104.548 38.2367 104.459 39.2455 103.785 39.8111C103.111 40.3768 102.102 40.2885 101.537 39.6144Z" fill="#958863"/>
<path d="M53.2983 80.0914C52.365 78.9791 50.7002 78.833 49.5879 79.7663L44.9263 83.6779L45.5832 84.4608C46.2645 83.8892 47.2832 83.9769 47.8553 84.6586C48.4267 85.3397 48.3375 86.3596 47.6562 86.9313L48.3125 87.7134L52.9741 83.8019C54.0858 82.8678 54.2316 81.2037 53.2983 80.0914ZM52.3069 83.0067C51.6328 83.5724 50.6241 83.4841 50.0584 82.81C49.4928 82.1359 49.581 81.1271 50.2551 80.5615C50.9293 79.9958 51.938 80.0841 52.5037 80.7582C53.0693 81.4323 52.981 82.441 52.3069 83.0067Z" fill="#958863"/>
</g>
</g>
<defs>
<filter id="filter0_f_1006_287" x="8" y="-6" width="250.484" height="265.398" filterUnits="userSpaceOnUse" color-interpolation-filters="sRGB">
<feFlood flood-opacity="0" result="BackgroundImageFix"/>
<feBlend mode="normal" in="SourceGraphic" in2="BackgroundImageFix" result="shape"/>
<feGaussianBlur stdDeviation="15" result="effect1_foregroundBlur_1006_287"/>
</filter>
<clipPath id="clip0_1006_287">
<rect width="150" height="138" rx="15" fill="white"/>
</clipPath>
<clipPath id="clip1_1006_287">
<rect width="201" height="80" fill="white" transform="translate(167.2 229.398) rotate(-130)"/>
</clipPath>
</defs>
</svg>
