<svg id="visual" viewBox="0 0 960 540" width="960" height="540" xmlns="http://www.w3.org/2000/svg" xmlns:xlink="http://www.w3.org/1999/xlink" version="1.1"><path d="M0 344L22.8 351.5C45.7 359 91.3 374 137 374.3C182.7 374.7 228.3 360.3 274 358.5C319.7 356.7 365.3 367.3 411.2 372.7C457 378 503 378 548.8 376C594.7 374 640.3 370 686 361.5C731.7 353 777.3 340 823 333.2C868.7 326.3 914.3 325.7 937.2 325.3L960 325L960 541L937.2 541C914.3 541 868.7 541 823 541C777.3 541 731.7 541 686 541C640.3 541 594.7 541 548.8 541C503 541 457 541 411.2 541C365.3 541 319.7 541 274 541C228.3 541 182.7 541 137 541C91.3 541 45.7 541 22.8 541L0 541Z" fill="#fa7268"></path><path d="M0 353L22.8 354.8C45.7 356.7 91.3 360.3 137 367.2C182.7 374 228.3 384 274 389.7C319.7 395.3 365.3 396.7 411.2 401.8C457 407 503 416 548.8 416.8C594.7 417.7 640.3 410.3 686 407.7C731.7 405 777.3 407 823 409C868.7 411 914.3 413 937.2 414L960 415L960 541L937.2 541C914.3 541 868.7 541 823 541C777.3 541 731.7 541 686 541C640.3 541 594.7 541 548.8 541C503 541 457 541 411.2 541C365.3 541 319.7 541 274 541C228.3 541 182.7 541 137 541C91.3 541 45.7 541 22.8 541L0 541Z" fill="#ef5f67"></path><path d="M0 458L22.8 454C45.7 450 91.3 442 137 440.2C182.7 438.3 228.3 442.7 274 439.7C319.7 436.7 365.3 426.3 411.2 417.8C457 409.3 503 402.7 548.8 399.5C594.7 396.3 640.3 396.7 686 401.5C731.7 406.3 777.3 415.7 823 422.5C868.7 429.3 914.3 433.7 937.2 435.8L960 438L960 541L937.2 541C914.3 541 868.7 541 823 541C777.3 541 731.7 541 686 541C640.3 541 594.7 541 548.8 541C503 541 457 541 411.2 541C365.3 541 319.7 541 274 541C228.3 541 182.7 541 137 541C91.3 541 45.7 541 22.8 541L0 541Z" fill="#e34c67"></path><path d="M0 438L22.8 440.5C45.7 443 91.3 448 137 450.3C182.7 452.7 228.3 452.3 274 455.7C319.7 459 365.3 466 411.2 468.8C457 471.7 503 470.3 548.8 467C594.7 463.7 640.3 458.3 686 460.3C731.7 462.3 777.3 471.7 823 473.7C868.7 475.7 914.3 470.3 937.2 467.7L960 465L960 541L937.2 541C914.3 541 868.7 541 823 541C777.3 541 731.7 541 686 541C640.3 541 594.7 541 548.8 541C503 541 457 541 411.2 541C365.3 541 319.7 541 274 541C228.3 541 182.7 541 137 541C91.3 541 45.7 541 22.8 541L0 541Z" fill="#d53867"></path><path d="M0 484L22.8 483.7C45.7 483.3 91.3 482.7 137 482C182.7 481.3 228.3 480.7 274 483.7C319.7 486.7 365.3 493.3 411.2 494.8C457 496.3 503 492.7 548.8 494C594.7 495.3 640.3 501.7 686 503.5C731.7 505.3 777.3 502.7 823 500.8C868.7 499 914.3 498 937.2 497.5L960 497L960 541L937.2 541C914.3 541 868.7 541 823 541C777.3 541 731.7 541 686 541C640.3 541 594.7 541 548.8 541C503 541 457 541 411.2 541C365.3 541 319.7 541 274 541C228.3 541 182.7 541 137 541C91.3 541 45.7 541 22.8 541L0 541Z" fill="#c62368"></path></svg>